<?xml version="1.0" standalone="no"?>
<!DOCTYPE svg PUBLIC "-//W3C//DTD SVG 1.1//EN" "http://www.w3.org/Graphics/SVG/1.1/DTD/svg11.dtd" >
<svg xmlns="http://www.w3.org/2000/svg">
<metadata>Generated by IcoMoon</metadata>
<defs>
<font id="AlbaFoxIcons" horiz-adv-x="1024">
<font-face units-per-em="1024" ascent="960" descent="-64" />
<missing-glyph horiz-adv-x="1024" />
<glyph unicode="&#x20;" horiz-adv-x="512" d="" />
<glyph unicode="&#xe900;" glyph-name="ico0" d="M887.65 403.16v-2.135l1.525-422.472 0.305-39.654-47.585-0.305h-672.601v318.151l97.611 65.887 0.915-292.223h522.829l-1.83 459.382-272.091 313.575-363.906-378.853-152.822-10.981 515.203 543.876 360.856-409.661 147.942-159.533-104.932-14.337z" />
<glyph unicode="&#xe901;" glyph-name="ico1" horiz-adv-x="1159" d="M0 365.527c39.702 31.211 52.61 24.383 82.444 39.702 6.139 48.422 1.893 109.581-25.359 130.866-10.155 7.917-46.644 15.949-37.235 38.669 3.385 8.089 45.783 20.482 54.676 22.662-6.196 12.335-11.13 11.532-22.318 38.095-22.49 53.758-31.268 177.051 29.489 215.892 25.301 16.179 89.673 20.425 120.596 25.072 66.093 9.868 131.841 20.539 198.278 31.383 65.863 10.786 133.39 18.531 198.336 31.096 16.408 3.155 135.054 24.154 148.307 20.654 13.655-3.672 28.743-10.27 43.947-15.032 57.487-18.072 116.638-39.644 173.723-59.323 19.507-6.713 168.101-55.536 172.346-60.7 13.31-16.064-8.089-29.088-18.761-33.735-31.555-13.827-39.874-39.013-43.488-78.313-1.32-14.458-4.705-56.512 6.311-62.708 13.597-7.631 43.259-9.352 77.912-38.21v-5.622c-15.146-9.294-42.972-12.737-54.618-17.728l-6.311-4.073c34.997-48.135 30.407-144.406 8.262-196.098-14.4-33.505-23.465-33.161-31.383-45.611 12.622-4.131 46.816-12.048 23.867-34.022-12.45-11.876-30.522-13.425-40.505-27.596-19.105-27.022-23.637-79.231-17.097-121.916 21.342-9.925 78.829-23.58 81.87-44.922-6.54-8.376-132.817-40.562-151.52-45.611l-462.191-126.965c-19.679-5.393-19.908-8.262-38.784-1.32l-108.893 40.275c-48.594 18.818-94.894 35.513-144.119 53.069-47.275 16.867-95.984 36.145-143.717 53.184-15.089 5.393-22.26 7.917-32.415 17.958-6.311 6.196-16.179 18.818-21.4 30.235-17.9 39.013-14.974 71.658-20.252 84.108v53.356l3.614 10.098c2.582 12.565 3.213 18.99 8.663 32.186 1.951 4.705 5.967 12.851 8.721 17.326 4.188 6.885 7.688 8.721 10.901 16.064l-31.899 11.015v6.54zM486.517 4.484l4.246 155.766c-5.336 4.418-333.792 125.358-369.305 137.923-36.145 12.794-84.509 46.357-84.911-60.126-0.115-28.457 3.672-56.454 13.138-78.141 10.614-24.154 25.244-26.621 51.348-34.136 34.079-9.925 372.059-121.17 385.484-121.285zM521.399 497.541l4.934 156.569c-13.999 7.458-46.93 18.015-61.503 23.064-97.877 33.563-209.696 78.485-308.663 114.343-16.581 6.024-47.16 22.433-63.167 11.36-30.063-20.883-24.326-112.851-8.319-149.397 11.589-26.449 22.605-25.129 51.004-34.481 42.685-13.999 85.886-28.342 128.456-41.193 32.645-9.811 244.807-81.354 257.257-80.264zM633.562 408.212l3.959-156.741c9.007-1.033 329.489 102.811 383.763 120.080 26.735 8.491 39.587 7.917 52.323 32.989 16.925 33.219 22.375 129.030-5.393 150.545-16.581 12.851-43.144-1.606-61.847-8.893-80.837-31.612-166.953-60.069-248.709-91.91-40.562-15.892-82.501-31.383-124.096-46.070zM105.106 393.066c42.398-9.466 84.739-24.555 126.047-35.284 83.075-21.629 171.199-49.455 255.421-71.887 21.687-5.795 42.111-12.106 63.683-18.244 17.097-4.934 48.709-15.835 64.945-17.040-0.287 22.088-1.664 146.012-5.967 156.282l-515.432 120.367c3.729-19.679 10.843-26.563 12.794-62.478 1.033-18.072-3.328-61.618-1.492-71.715zM513.309 159.618l-4.59-155.766c18.703 1.893 46.93 12.679 65.462 17.556 100.86 26.506 217.9 60.987 318.703 90.017 26.104 7.516 109.179 29.088 127.194 36.603-1.893 24.957-4.246 43.947-2.869 70.855 1.434 26.908 9.639 40.792 12.794 61.503-20.023-2.639-45.439-10.212-64.945-14.917l-261.617-60.815c-19.449-4.59-41.882-17.441-60.356-21.801-10.843-2.582-15.663 3.844-31.612 0.287l-98.164-23.523zM548.938 653.364l-5.106-156.684 509.925 143.144 0.975 6.713c0.459 23.236-8.204 47.619 2.41 98.221 2.295 11.13 7.172 19.966 8.606 28.514l-516.809-119.908zM0 272.298v86.689l31.899-11.015c-3.213-7.344-6.713-9.18-10.901-16.064-2.754-4.475-6.77-12.622-8.721-17.326-5.45-13.196-6.081-19.621-8.663-32.186l-3.614-10.098z" />
<glyph unicode="&#xe902;" glyph-name="ico2" horiz-adv-x="864" d="M99.081 960v-71.929h32.382v31.851h699.654v-864.216h-66.356v824.933h-764.682v-706.555l32.382 17.518v648.958h699.654v-864.216h-699.654v120.236l-32.382-17.252v-143.328h764.682v79.361h98.737v944.639h-764.417zM563.836 248.933l-63.436-45.918-63.436-46.184 24.419-74.584 24.153-74.584h156.865l48.307 149.167-63.436 46.184-63.436 45.918zM563.836 213.897l45.122-32.647 44.856-32.647-17.252-52.819-16.987-52.819h-111.212l-16.987 52.819-17.252 52.819 89.713 65.294zM109.698 566.113v-108.292h98.206v108.292h-98.206zM134.648 538.244h48.041v-52.819h-48.041v52.819zM268.421 511.171v-31.32h407.158v31.32h-407.158zM249.045 530.016h445.91v-69.010h-445.91v69.010zM109.698 717.138v-108.292h98.206v108.292h-98.206zM134.648 689.269h48.041v-52.819h-48.041v52.819zM268.421 662.196v-31.32h407.158v31.32h-407.158zM249.045 681.041h445.91v-69.010h-445.91v69.010z" />
<glyph unicode="&#xe903;" glyph-name="ico3" horiz-adv-x="845" d="M571.333-64v37.957h-540.679v749.865h-30.787v-787.822h571.466zM52.163 896.316v-894.102h724.138v63.684h69.166v894.102h-724.138v-63.684h-69.166zM152.117 896.316v25.727h662.563v-818.188h-38.379v792.461h-624.185zM82.951 858.359h662.563v-818.188h-662.563v818.188zM586.094 298.28l-120.198-87.301 23.196-70.432 22.774-70.853h148.455l22.774 70.853 23.196 70.432-120.198 87.301zM586.094 264.962l85.193-61.575-16.448-50.188-16.026-50.188h-105.437l-16.026 50.188-16.448 50.188 85.193 61.575zM155.913 598.563v-102.484h93.206v102.484h-93.206zM179.953 571.993h45.127v-49.766h-45.127v49.766zM306.476 546.689v-29.944h385.476v29.944h-385.476zM287.92 564.402h422.168v-65.371h-422.168v65.371zM155.913 741.535v-102.484h93.206v102.484h-93.206zM179.953 715.387h45.127v-50.188h-45.127v50.188zM306.476 689.661v-29.944h385.476v29.944h-385.476zM287.92 707.374h422.168v-65.371h-422.168v65.371z" />
<glyph unicode="&#xe904;" glyph-name="ico4" horiz-adv-x="828" d="M609.545-64v40.404h-576.71v799.882h-32.829v-840.286h609.539zM55.878 960v-953.608h771.788v953.608h-771.788zM88.706 919.596h706.131v-872.483h-706.131v872.483zM191.927 205.889v-31.566h539.778v31.566h-539.778zM166.359 224.829h590.915v-69.445h-590.915v69.445zM191.927 472.937v-31.882h539.778v31.882h-539.778zM166.359 491.877h590.915v-69.761h-590.915v69.761zM191.927 739.67v-31.882h539.778v31.882h-539.778zM166.359 758.609h590.915v-69.761h-590.915v69.761z" />
<glyph unicode="&#xe905;" glyph-name="ico5" horiz-adv-x="1042" d="M0 874.447h120.463v58.622c0 14.713 11.954 26.897 26.897 26.897h7.816c14.713 0 26.897-12.184 26.897-26.897v-58.622h114.256v58.622c0 14.713 12.184 26.897 26.897 26.897h7.816c14.943 0 26.897-12.184 26.897-26.897v-58.622h114.485v58.622c0 14.713 11.954 26.897 26.897 26.897h7.816c14.713 0 26.897-12.184 26.897-26.897v-58.622h114.256v58.622c0 14.713 12.184 26.897 27.127 26.897h7.586c14.943 0 26.897-12.184 26.897-26.897v-58.622h114.485v58.622c0 14.713 12.184 26.897 26.897 26.897h7.816c14.713 0 26.897-12.184 26.897-26.897v-58.622h155.866v-938.413h-1041.864v938.413zM717.488 343.63v-108.278h98.163v108.278h-98.163zM742.776 315.813h47.587v-52.645h-47.587v52.645zM717.488 519.496v-108.049h98.163v108.049h-98.163zM742.776 491.909h47.587v-52.875h-47.587v52.875zM541.622 343.63v-108.278h97.933v108.278h-97.933zM566.68 315.813h47.817v-52.645h-47.817v52.645zM541.622 519.496v-108.049h97.933v108.049h-97.933zM566.68 491.909h47.817v-52.875h-47.817v52.875zM365.526 167.534v-108.049h98.163v108.049h-98.163zM390.584 139.717h47.817v-52.645h-47.817v52.645zM365.526 343.63v-108.278h98.163v108.278h-98.163zM390.584 315.813h47.817v-52.645h-47.817v52.645zM365.526 519.496v-108.049h98.163v108.049h-98.163zM390.584 491.909h47.817v-52.875h-47.817v52.875zM189.66 167.534v-108.049h97.933v108.049h-97.933zM214.718 139.717h47.817v-52.645h-47.817v52.645zM189.66 343.63v-108.278h97.933v108.278h-97.933zM214.718 315.813h47.817v-52.645h-47.817v52.645zM885.998 834.676v-33.564c0-14.943-12.184-27.127-26.897-27.127h-7.816c-14.713 0-26.897 12.184-26.897 27.127v33.564h-114.485v-33.564c0-14.943-11.954-27.127-26.897-27.127h-7.586c-14.943 0-27.127 12.184-27.127 27.127v33.564h-114.256v-33.564c0-14.943-12.184-27.127-26.897-27.127h-7.816c-14.943 0-26.897 12.184-26.897 27.127v33.564h-114.485v-33.564c0-14.943-11.954-27.127-26.897-27.127h-7.816c-14.713 0-26.897 12.184-26.897 27.127v33.564h-114.256v-33.564c0-14.943-12.184-27.127-26.897-27.127h-7.816c-14.943 0-26.897 12.184-26.897 27.127v33.564h-76.324v-182.763h953.356v182.763h-111.497zM997.495 619.039h-953.356v-643.234h953.356v643.234z" />
<glyph unicode="&#xe906;" glyph-name="ico6" horiz-adv-x="1047" d="M0 750.137h229.072c43.445 122.435 157.98 209.324 296.213 209.324 134.283 0 248.819-86.889 292.264-209.324v0h229.072v-813.599h-1046.62v813.599zM379.153 434.177h288.314c15.798 0 31.596 19.748 31.596 43.445v51.344h86.889c3.95 7.899 7.899 15.798 11.849 27.647h-548.982c3.95-11.849 7.899-19.748 11.849-27.647h90.839v-51.344c0-23.697 11.849-43.445 27.647-43.445zM679.316 528.965v-35.546c0-15.798-11.849-31.596-23.697-31.596h-264.617c-11.849 0-19.748 15.798-19.748 31.596v35.546h308.062zM268.567 750.137h509.487c-47.394 94.788-142.182 157.98-252.769 157.98-114.536 0-209.324-63.192-256.718-157.98zM829.397 682.996c3.95-7.899 3.95-15.798 7.899-27.647h-31.596c0 19.748-3.95 39.495-11.849 59.243h-541.083c-3.95-19.748-11.849-39.495-11.849-59.243h-27.647c0 11.849 0 19.748 3.95 27.647 0 11.849 3.95 23.697 3.95 31.596h-177.728v-157.98h177.728c3.95-7.899 3.95-19.748 7.899-27.647h-185.627v-560.83h959.731v560.83h-185.627c3.95 7.899 7.899 19.748 7.899 27.647h177.728v157.98h-177.728c3.95-7.899 3.95-19.748 7.899-31.596h-3.95z" />
<glyph unicode="&#xe907;" glyph-name="ico7" horiz-adv-x="1042" d="M0 874.572h120.014v58.268c0 14.784 12.175 26.96 26.96 26.96h7.827c14.784 0 26.96-12.175 26.96-26.96v-58.268h114.796v58.268c0 14.784 12.175 26.96 26.96 26.96h7.827c14.784 0 26.96-12.175 26.96-26.96v-58.268h113.926v58.268c0 14.784 12.175 26.96 26.96 26.96h7.827c14.784 0 26.96-12.175 26.96-26.96v-58.268h113.926v58.268c0 14.784 12.175 26.96 26.96 26.96h7.827c14.784 0 26.96-12.175 26.96-26.96v-58.268h114.796v58.268c0 14.784 12.175 26.96 26.96 26.96h7.827c14.784 0 26.96-12.175 26.96-26.96v-58.268h155.67v-938.371h-1041.862v938.371zM576.59 335.378c213.938-5.218 226.114 28.699 38.265-115.666 60.877-205.242 97.403-206.981-99.142-72.182-196.545-134.798-159.149-133.059-98.272 72.182-190.457 145.234-174.803 110.448 37.396 115.666 78.27 221.765 43.483 221.765 121.753 0zM886.191 834.567v-33.917c0-14.784-12.175-26.96-26.96-26.96h-7.827c-14.784 0-26.96 12.175-26.96 26.96v33.917h-114.796v-33.917c0-14.784-12.175-26.96-26.96-26.96h-7.827c-14.784 0-26.96 12.175-26.96 26.96v33.917h-113.926v-33.917c0-14.784-12.175-26.96-26.96-26.96h-7.827c-14.784 0-26.96 12.175-26.96 26.96v33.917h-113.926v-33.917c0-14.784-12.175-26.96-26.96-26.96h-7.827c-14.784 0-26.96 12.175-26.96 26.96v33.917h-114.796v-33.917c0-14.784-12.175-26.96-26.96-26.96h-7.827c-14.784 0-26.96 12.175-26.96 26.96v33.917h-75.661v-182.63h953.155v182.63h-111.317zM997.509 618.89h-953.155v-642.684h953.155v642.684z" />
<glyph unicode="&#xe908;" glyph-name="ico8" horiz-adv-x="1042" d="M629.056 283.856v-64.871h58.974v64.871h-58.974zM605.466 403.77h51.111v-57.008h-51.111v57.008zM619.227 388.043h25.555v-27.521h-25.555v27.521zM689.995 374.283h216.238v-15.726h-216.238v15.726zM680.166 384.112h235.896v-35.384h-235.896v35.384zM605.466 484.367v-57.008h51.111v57.008h-51.111zM619.227 468.641h25.555v-27.521h-25.555v27.521zM689.995 454.88h216.238v-15.726h-216.238v15.726zM680.166 464.709h235.896v-37.35h-235.896v37.35zM570.082 539.41v-349.912l17.692 9.829v320.425h344.015v-426.578h-344.015v58.974l-17.692-9.829v-70.769h379.399v467.86h-379.399zM302.733 496.162c-115.982 0-210.34-94.358-210.34-212.306 0-115.982 94.358-210.34 210.34-210.34 117.948 0 212.306 94.358 212.306 210.34 0 117.948-94.358 212.306-212.306 212.306zM314.528 464.709c90.427-5.897 163.161-78.632 169.059-169.059h-17.692v-23.59h17.692c-5.897-90.427-78.632-163.161-169.059-169.059v17.692h-23.59v-17.692c-90.427 5.897-163.161 78.632-169.059 169.059h17.692v23.59h-17.692c5.897 90.427 78.632 165.127 171.025 169.059v-29.487h21.624v29.487zM292.904 409.667v-149.401h106.153v23.59h-82.564v125.811h-23.59zM851.191 960.091h7.863c15.726 0 27.521-11.795 27.521-27.521v-58.974h155.298v-937.686h-1041.873v937.686h119.914v58.974c0 15.726 11.795 27.521 27.521 27.521h7.863c15.726 0 27.521-11.795 27.521-27.521v-58.974h114.016v58.974c0 15.726 11.795 27.521 27.521 27.521h7.863c13.761 0 25.555-11.795 25.555-27.521v-58.974h115.982v58.974c0 15.726 11.795 27.521 25.555 27.521h7.863c15.726 0 27.521-11.795 27.521-27.521v-58.974h114.016v58.974c0 15.726 11.795 27.521 27.521 27.521h7.863c13.761 0 25.555-11.795 25.555-27.521v-58.974h115.982v58.974c0 15.726 11.795 27.521 25.555 27.521zM886.575 834.28v-33.419c0-13.761-11.795-27.521-27.521-27.521h-7.863c-13.761 0-25.555 13.761-25.555 27.521v33.419h-115.982v-33.419c0-13.761-11.795-27.521-25.555-27.521h-7.863c-15.726 0-27.521 13.761-27.521 27.521v33.419h-114.016v-33.419c0-13.761-11.795-27.521-27.521-27.521h-7.863c-13.761 0-25.555 13.761-25.555 27.521v33.419h-115.982v-33.419c0-13.761-11.795-27.521-25.555-27.521h-7.863c-15.726 0-27.521 13.761-27.521 27.521v33.419h-114.016v-33.419c0-13.761-11.795-27.521-27.521-27.521h-7.863c-15.726 0-27.521 13.761-27.521 27.521v33.419h-74.7v-182.819h953.413v182.819h-112.051zM998.626 618.042h-953.413v-642.816h953.413v642.816zM843.328 177.703v-66.837h58.974v66.837h-58.974zM859.054 160.010h27.521v-31.453h-27.521v31.453zM843.328 283.856v-64.871h58.974v64.871h-58.974zM859.054 268.129h27.521v-33.419h-27.521v33.419zM735.209 177.703v-66.837h60.94v66.837h-60.94zM750.935 160.010h29.487v-31.453h-29.487v31.453zM735.209 283.856v-64.871h60.94v64.871h-60.94zM750.935 268.129h29.487v-33.419h-29.487v33.419zM629.056 177.703v-66.837h58.974v66.837h-58.974zM644.782 160.010h27.521v-31.453h-27.521v31.453zM644.782 268.129h27.521v-33.419h-27.521v33.419z" />
<glyph unicode="&#xe909;" glyph-name="ico9" horiz-adv-x="829" d="M0.774 960v-761.856l32.768 16.384v704.512h761.856v-933.888h-761.856v131.072l-32.768-24.576v-155.648h827.392v1024h-827.392zM574.214 124.416v-114.688h-106.496v114.688h106.496zM549.638 91.648h-57.344v-49.152h57.344v49.152zM754.438 124.416v-114.688h-98.304v114.688h98.304zM729.862 91.648h-49.152v-49.152h49.152v49.152zM754.438 304.64v-114.688h-98.304v114.688h98.304zM729.862 280.064h-49.152v-57.344h49.152v57.344zM410.374 796.16c-147.456 0-270.336-122.88-270.336-278.528 0-147.456 122.88-270.336 270.336-270.336 155.648 0 278.528 122.88 278.528 270.336 0 155.648-122.88 278.528-278.528 278.528zM426.758 755.2c122.88-8.192 212.992-98.304 221.184-221.184h-24.576v-24.576h24.576c-8.192-122.88-98.304-212.992-221.184-221.184v24.576h-24.576v-24.576c-122.88 8.192-212.992 98.304-221.184 221.184h24.576v24.576h-24.576c8.192 122.88 98.304 212.992 221.184 221.184v-40.96h24.576v40.96zM402.182 681.472v-188.416h139.264v24.576h-106.496v163.84h-32.768z" />
<glyph unicode="&#xe90a;" glyph-name="ico10" horiz-adv-x="1213" d="M314.056 333.417l-211.89-198.394 31.446 198.394h-64.917c-41.298 0-68.696 38.464-68.696 77.333v473.311c0 39.004 27.397 77.468 68.696 77.468h691.004c41.298 0 68.831-38.464 68.831-77.468v-473.311c0-38.869-27.532-77.333-68.831-77.333h-445.644zM1103.852 133.134l31.581-198.664-212.295 198.664h-459.68c-41.298 0-68.831 38.599-68.831 77.603v74.229h116.742v-33.875c0-3.644 2.699-14.306 7.288-14.306h569.944c4.589 0 7.153 10.662 7.153 14.306v382.482c0 3.509-2.564 14.306-7.153 14.306h-181.928v114.852h237.128c41.298 0 68.831-38.599 68.831-77.468v-474.526c0-39.004-27.532-77.603-68.831-77.603h-39.949zM122.95 847.487c-4.724 0-7.288-10.662-7.288-14.306v-382.482c0-3.509 2.699-14.306 7.288-14.306h582.63c4.589 0 7.153 10.797 7.153 14.306v382.482c0 3.644-2.564 14.306-7.153 14.306h-582.63z" />
<glyph unicode="&#xe90b;" glyph-name="ico11" horiz-adv-x="1238" d="M797.678 448c-47.623-47.623-107.151-83.34-178.585-83.34s-130.962 35.717-178.585 83.34c-250.019-59.528-440.509-261.924-440.509-500.037 0-11.906 0-11.906 0-11.906h1238.187c0 0 0 0 0 11.906 0 238.113-190.49 440.509-440.509 500.037zM619.094 959.943c-130.962 0-250.019-119.056-250.019-273.83 0-142.868 119.056-261.924 250.019-261.924 142.868 0 250.019 119.056 250.019 261.924 0 154.773-107.151 273.83-250.019 273.83zM619.094 912.32c119.056 0 202.396-95.245 202.396-226.207 0-119.056-83.34-226.207-202.396-226.207-107.151 0-202.396 107.151-202.396 226.207 0 130.962 95.245 226.207 202.396 226.207zM785.773 388.472c226.207-59.528 404.792-214.302 404.792-404.792 0 0 0 0 0 0h-1131.036c0 0 0 0 0 0 0 190.49 166.679 345.264 392.886 404.792 47.623-47.623 107.151-71.434 166.679-71.434s119.056 23.811 166.679 71.434z" />
<glyph unicode="&#xe90c;" glyph-name="ico12" horiz-adv-x="918" d="M358.379 657.836c83.934-16.787 151.082-67.148 151.082-134.295 0-16.787 0-16.787 0-16.787h-402.885c0 0 0 0 0 16.787 0 67.148 67.148 117.508 134.295 134.295 16.787-16.787 33.574-16.787 67.148-16.787 16.787 0 33.574 0 50.361 16.787zM308.018 859.279c33.574 0 83.934-33.574 83.934-83.934s-50.361-83.934-83.934-83.934c-50.361 0-83.934 33.574-83.934 83.934s33.574 83.934 83.934 83.934zM324.805 305.311c117.508-67.148 167.869-100.721 201.443-184.656 50.361 167.869 184.656 201.443 318.951 352.525-251.803-318.951-184.656-386.098-335.738-470.033-16.787 134.295-134.295 134.295-184.656 302.164zM5.854 960h906.492v-1024h-906.492v151.082l33.574 33.574v-134.295h839.344v923.279h-839.344v-688.262l-33.574-16.787v755.41z" />
<glyph unicode="&#xe90d;" glyph-name="ico13" horiz-adv-x="1423" d="M1115.024 823.937l223.803-150.817-397.136-589.417-223.803 150.732zM1136.266 856.989l223.803-150.817 54.209 80.379c15.804 23.451 9.516 55.484-13.85 71.287l-138.751 93.464c-23.366 15.719-55.399 9.516-71.202-13.935l-54.209-80.379zM679.482-63.97l9.261 132.974 9.261 133.059 221.085-149.032-119.804-58.457zM149.712 410.657l22.006-70.183 71.882 15.974-49.791-54.209 49.791-54.209-71.882 15.974-22.006-70.183-22.091 70.183-71.882-15.974 49.791 54.209-49.791 54.209 71.882-15.974zM149.712 475.062l35.176-111.902 114.451 25.49-79.274-86.412 79.274-86.412-114.451 25.49-35.176-111.902-35.176 111.902-114.536-25.49 79.359 86.412-79.359 86.412 114.536-25.49zM416.849 516.186l-12.575-36.026 34.752-15.634-37.471-7.137 3.824-37.98-24.895 28.974-31.013-22.346 12.66 36.111-34.837 15.634 37.555 7.052-3.824 38.065 24.895-28.974zM436.901 542.951l-20.137-57.438 55.484-24.98-59.817-11.301 6.118-60.582-39.68 46.222-49.451-35.601 20.222 57.438-55.569 25.065 59.817 11.216-6.118 60.582 39.765-46.137zM437.496 295.187l-19.118-16.569 14.869-20.477-23.961 8.242-10.281-23.111-4.758 24.895-25.15-2.634 19.118 16.569-14.869 20.477 23.876-8.327 10.366 23.111 4.758-24.81zM457.803 303.938l-30.503-26.34 23.706-32.712-38.15 13.255-16.399-36.876-7.647 39.68-40.104-4.163 30.503 26.34-23.621 32.712 38.065-13.255 16.484 36.791 7.562-39.595zM737.090 808.218c-34.327 0-62.196-27.869-62.196-62.196 0-34.412 27.869-62.196 62.196-62.196s62.196 27.784 62.196 62.196c0 34.327-27.869 62.196-62.196 62.196zM698.175 945.185h77.745v-63.81c10.366-2.889 20.222-7.052 29.399-12.15l45.118 45.118 54.974-54.974-45.118-45.118c5.183-9.176 9.261-19.033 12.235-29.399h63.81v-77.745h-63.81c-2.974-10.366-7.052-20.222-12.235-29.399l45.118-45.118-54.974-54.974-45.118 45.118c-9.176-5.098-19.033-9.176-29.399-12.15v-63.81h-77.745v63.81c-10.281 2.974-20.137 7.052-29.314 12.15l-45.118-45.118-54.974 54.974 45.118 45.118c-5.183 9.176-9.261 19.033-12.235 29.399h-63.81v77.745h63.81c2.974 10.366 7.052 20.222 12.235 29.399l-45.118 45.118 54.974 54.974 45.118-45.118c9.176 5.098 19.033 9.261 29.314 12.15v63.81zM44.013 77.586h582.45v-141.555h-582.45z" />
<glyph unicode="&#xe90e;" glyph-name="ico14" horiz-adv-x="744" d="M0.007-63.592l9.391 132.695 8.982 133.104 110.648-74.718 110.648-74.309-239.668-116.772zM435.657 824.038l223.745-150.66-397.27-589.576-223.745 150.66 397.27 589.576zM456.888 857.11l223.745-151.069 53.895 80.434c15.923 23.681 9.799 55.528-13.882 71.451l-138.411 93.499c-23.681 15.515-55.528 9.391-71.451-13.882l-53.895-80.434z" />
<glyph unicode="&#xe90f;" glyph-name="ico15" horiz-adv-x="832" d="M409.651 960c-45.389 0-81.932-36.54-81.932-81.929v-255.205l-140.141-91.491v41.616c0 12.542-10.097 22.638-22.638 22.638s-22.638-10.097-22.638-22.638v-71.176l-58.215-38.005v16.469c0 12.542-10.097 22.638-22.638 22.638s-22.638-10.097-22.638-22.638v-46.029l-38.81-25.336v-159.548l327.719 145.010v-273.077c0-10.089 1.808-19.742 5.114-28.652l-167.448-87.577v-67.915l225.633 58.415 18.161-29.498 19.231 29.498 230.709-59.57-0.761 70.899-168.409 84.827c3.291 8.829 4.612 19.541 5.943 29.574v276.894l336.344-148.827v159.548l-35.818 23.384v50.138c0 12.542-10.097 22.638-22.638 22.638s-22.638-10.097-22.638-22.638v-20.578l-58.215 38.005v75.282c0 12.542-10.097 22.639-22.638 22.638s-22.638-10.097-22.638-22.638v-45.725l-151.758 99.076v249.575c0 45.389-36.54 81.929-81.929 81.929z" />
<glyph unicode="&#xe910;" glyph-name="ico16" horiz-adv-x="968" d="M116.986 708.679h451.309l33.688 50.799h-526.17c-41.709 0-75.931-34.222-75.931-75.931v-672.15c0-41.709 34.222-75.396 75.931-75.396h671.616c41.709 0 75.931 33.688 75.931 75.396v505.851l-50.799-75.396v-388.746c0-36.896-29.945-66.841-66.306-66.841h-589.268c-36.361 0-66.306 29.945-66.306 66.841v588.733c0 36.896 29.945 66.841 66.306 66.841zM98.805 78.237v69.514h69.514v-69.514h-69.514zM292.376 78.237v69.514h69.514v-69.514h-69.514zM636.205 631.144h-4.278l3.208-2.139 2.674-1.604-0.535 1.604-1.069 2.139zM427.127 216.731l6.417 96.785 6.951 96.251 160.418-108.015-86.626-42.243-87.16-42.778zM743.15 861.61l162.557-109.619-288.217-427.781-162.557 109.084 288.217 428.315zM759.192 885.138l162.557-109.619 39.57 58.285c11.229 17.111 6.951 40.639-10.16 51.868l-100.528 67.91c-17.111 11.764-40.639 6.951-51.868-10.16l-39.57-58.285z" />
<glyph unicode="&#xe911;" glyph-name="ico17" d="M145.669 897.021c-45.485 0-82.69-37.205-82.69-82.69v-732.545c0-45.485 37.205-82.69 82.69-82.69h732.545c45.485 0 82.69 37.205 82.69 82.69v732.545c0 45.485-37.205 82.69-82.69 82.69h-732.545zM94.353 960h835.295c51.9 0 94.236-42.453 94.236-94.353v-835.295c0-51.9-42.336-94.236-94.236-94.236h-835.295c-51.9 0-94.353 42.336-94.353 94.236v835.295c0 51.9 42.453 94.353 94.353 94.353zM664.317 430.272c-0.35 9.214-0.467 16.095-0.467 20.643 0 27.058 3.849 50.267 11.43 69.977 5.715 14.812 14.695 29.74 27.291 44.785 9.097 10.963 25.658 26.825 49.451 47.934 23.909 20.993 39.304 37.788 46.535 50.267 7.231 12.713 10.73 26.241 10.73 41.17 0 26.941-10.497 50.5-31.373 70.91s-46.535 30.557-76.858 30.557c-29.39 0-53.766-9.214-73.359-27.641-19.71-18.544-32.539-47.468-38.721-86.772l-70.56 8.631c6.415 52.366 25.192 92.603 56.682 120.477 31.49 27.758 73.126 41.753 124.793 41.753 54.815 0 98.435-14.812 131.091-44.785 32.539-29.857 48.867-66.128 48.867-108.581 0-24.492-5.831-47.118-17.261-67.761-11.546-20.76-33.939-45.835-67.411-75.575-22.509-19.827-37.088-34.405-44.086-43.852-6.881-9.447-12.013-20.293-15.278-32.539-3.266-12.129-5.248-31.956-5.715-59.597h-65.779zM651.721 292.301h78.374v78.374h-78.374v-78.374zM122.81 112.926h86.655v86.655h-86.655v-86.655zM363.532 112.926h86.655v86.655h-86.655v-86.655zM604.253 112.926h86.655v86.655h-86.655v-86.655z" />
<glyph unicode="&#xe912;" glyph-name="ico18" horiz-adv-x="1137" d="M0 959.985h1136.8v-1023.97h-1136.8v1023.97zM274.055 757.631c-41.951 0-75.951-34-75.951-75.951s34-75.951 75.951-75.951c41.951 0 75.951 34 75.951 75.951s-34 75.951-75.951 75.951zM274.055 785.051c57.169 0 103.37-46.201 103.37-103.37 0-57.032-46.201-103.37-103.37-103.37s-103.37 46.338-103.37 103.37c0 57.169 46.201 103.37 103.37 103.37zM48.258 352.238c112.556 87.193 273.918 148.201 499.852-87.879 159.031-166.297 403.062 140.935 540.433 97.887v554.279h-1040.285v-564.287z" />
<glyph unicode="&#xe913;" glyph-name="ico19" horiz-adv-x="790" d="M30.059 902.031c-16.573 0-30.044-13.471-30.044-30.044v-905.942c0-16.573 13.471-30.044 30.044-30.044h729.688c16.498 0 29.969 13.471 29.969 30.044v905.942c0 16.573-13.471 30.044-29.969 30.044h-106.555v46.466c0 6.357-5.222 11.503-11.503 11.503h-41.32c-6.357 0-11.503-5.146-11.503-11.503v-46.466h-380.888v45.558c0 6.281-5.146 11.503-11.503 11.503h-41.245c-6.357 0-11.579-5.222-11.579-11.503v-45.558h-113.593zM588.866 862.073v-14.606c0-6.357 5.146-11.503 11.503-11.503h41.32c6.281 0 11.503 5.146 11.503 11.503v14.606h93.992v-142.729h-697.222v142.729h93.689v-15.741c0-6.357 5.222-11.503 11.579-11.503h41.245c6.357 0 11.503 5.146 11.503 11.503v15.741h380.888zM611.418 408.988h98.003c12.184 0 22.174-9.99 22.174-22.174v-98.003c0-12.184-9.99-22.174-22.174-22.174h-98.003c-12.184 0-22.174 9.99-22.174 22.174v98.003c0 12.184 9.99 22.174 22.174 22.174zM611.418 576.993h98.003c12.184 0 22.174-9.99 22.174-22.174v-98.003c0-12.184-9.99-22.174-22.174-22.174h-98.003c-12.184 0-22.174 9.99-22.174 22.174v98.003c0 12.184 9.99 22.174 22.174 22.174zM443.413 240.983h98.003c12.184 0 22.174-9.99 22.174-22.174v-98.003c0-12.184-9.99-22.174-22.174-22.174h-98.003c-12.184 0-22.174 9.99-22.174 22.174v98.003c0 12.184 9.99 22.174 22.174 22.174zM443.413 408.988h98.003c12.184 0 22.174-9.99 22.174-22.174v-98.003c0-12.184-9.99-22.174-22.174-22.174h-98.003c-12.184 0-22.174 9.99-22.174 22.174v98.003c0 12.184 9.99 22.174 22.174 22.174zM443.413 576.993h98.003c12.184 0 22.174-9.99 22.174-22.174v-98.003c0-12.184-9.99-22.174-22.174-22.174h-98.003c-12.184 0-22.174 9.99-22.174 22.174v98.003c0 12.184 9.99 22.174 22.174 22.174zM275.408 240.983h98.003c12.184 0 22.174-9.99 22.174-22.174v-98.003c0-12.184-9.99-22.174-22.174-22.174h-98.003c-12.184 0-22.174 9.99-22.174 22.174v98.003c0 12.184 9.99 22.174 22.174 22.174zM275.408 408.988h98.003c12.184 0 22.174-9.99 22.174-22.174v-98.003c0-12.184-9.99-22.174-22.174-22.174h-98.003c-12.184 0-22.174 9.99-22.174 22.174v98.003c0 12.184 9.99 22.174 22.174 22.174zM107.327 240.983h98.079c12.184 0 22.174-9.99 22.174-22.174v-98.003c0-12.184-9.99-22.174-22.174-22.174h-98.079c-12.184 0-22.098 9.99-22.098 22.174v98.003c0 12.184 9.914 22.174 22.098 22.174zM107.327 408.988h98.079c12.184 0 22.174-9.99 22.174-22.174v-98.003c0-12.184-9.99-22.174-22.174-22.174h-98.079c-12.184 0-22.098 9.99-22.098 22.174v98.003c0 12.184 9.914 22.174 22.098 22.174z" />
<glyph unicode="&#xe914;" glyph-name="ico20" d="M694.872 191.994l73.144 73.144-173.718 182.861 173.718 173.718-73.144 73.144-173.718-173.718-182.861 173.718-73.144-73.144 173.718-182.861-173.718-173.718 73.144-73.144 173.718 173.718 182.861-173.718zM512.011 960.011c283.435 0 512.011-228.576 512.011-512.011s-228.576-512.011-512.011-512.011c-283.435 0-512.011 228.576-512.011 512.011s228.576 512.011 512.011 512.011z" />
<glyph unicode="&#xe915;" glyph-name="ico21" d="M249.581 537.87c142.764-78.058 196.173-131.466 231.093-218.768 71.896 195.145 224.931 234.175 367.695 403.643-285.529-371.803-205.416-446.78-378.993-539.218-30.812 145.846-158.171 147.9-219.795 354.343zM512.514 960c-283.474 0-512.514-229.039-512.514-512.514 0-282.447 229.039-511.486 512.514-511.486 282.447 0 511.486 229.039 511.486 511.486 0 283.474-229.039 512.514-511.486 512.514zM512.514 900.429c249.581 0 451.916-202.335 451.916-452.943 0-249.581-202.335-451.916-451.916-451.916-250.608 0-452.943 202.335-452.943 451.916 0 250.608 202.335 452.943 452.943 452.943z" />
<glyph unicode="&#xe916;" glyph-name="ico22" d="M511.994 959.994c-282.315 0-511.994-229.68-511.994-511.994s229.68-511.994 511.994-511.994c282.315 0 511.994 229.68 511.994 511.994s-229.68 511.994-511.994 511.994zM478.499 156.115h66.99v86.13h-66.99v-86.13zM483.284 565.232l14.355-263.175h28.71l14.355 263.175v174.652h-57.42v-174.652zM511.994 921.714c263.175 0 473.714-210.54 473.714-473.714s-210.54-473.714-473.714-473.714c-263.175 0-473.714 210.54-473.714 473.714s210.54 473.714 473.714 473.714z" />
<glyph unicode="&#xe917;" glyph-name="ico23" d="M512.684 960c-283.001 0-512.684-229.682-512.684-512.684 0-281.634 229.682-511.316 512.684-511.316 281.634 0 511.316 229.682 511.316 511.316 0 283.001-229.682 512.684-511.316 512.684zM481.239 236.774v-86.131h68.358v86.131h-68.358zM336.32 553.955c0 28.71 4.101 54.686 12.304 77.928 8.203 24.609 20.507 45.116 36.913 61.522 15.039 16.406 35.546 28.71 57.421 38.28 23.242 9.57 49.218 13.672 79.295 13.672 21.874 0 43.749-2.734 64.256-9.57 19.14-6.836 36.913-16.406 51.952-30.077s27.343-28.71 35.546-47.85c9.57-17.773 13.672-39.648 13.672-62.889 0-31.445-6.836-57.421-20.507-77.928-12.304-21.874-30.077-42.382-50.585-61.522-16.406-16.406-30.077-30.077-41.015-39.648-9.57-9.57-16.406-19.14-21.874-27.343-5.469-9.57-8.203-21.874-9.57-34.179-1.367-13.672-2.734-32.812-4.101-57.421h-50.585c-1.367 24.609 0 45.116 4.101 62.889 2.734 16.406 8.203 31.445 15.039 45.116 8.203 13.672 17.773 27.343 30.077 39.648s27.343 25.976 45.116 42.382c15.039 13.672 27.343 30.077 36.913 46.483 10.937 17.773 15.039 36.913 15.039 58.788 0 16.406-2.734 31.445-9.57 45.116-5.469 13.672-13.672 24.609-24.609 34.179s-23.242 17.773-36.913 23.242c-15.039 5.469-30.077 8.203-45.116 8.203-21.874 0-41.015-4.101-58.788-12.304-16.406-6.836-30.077-17.773-41.015-31.445s-19.14-28.71-24.609-46.483c-5.469-17.773-8.203-38.28-6.836-58.788h-51.952zM512.684 923.087c261.127 0 474.403-213.276 474.403-475.77 0-261.127-213.276-474.403-474.403-474.403-262.494 0-475.77 213.276-475.77 474.403 0 262.494 213.276 475.77 475.77 475.77z" />
<glyph unicode="&#xe918;" glyph-name="ico24" d="M511.649 960c-282.531 0-511.649-229.117-511.649-511.649 0-283.234 229.117-512.351 511.649-512.351 283.234 0 512.351 229.117 512.351 512.351 0 282.531-229.117 511.649-512.351 511.649zM819.481 390.721h-251.607v-250.202h-105.422v250.202h-250.202v106.828h250.202v250.202h105.422v-250.202h251.607v-106.828z" />
<glyph unicode="&#xe919;" glyph-name="ico25" d="M216.517 694.86h128.487v-127.888h-128.487v127.888zM216.517 534.907h128.487v-127.888h-128.487v127.888zM216.517 365.514h128.487v-127.888h-128.487v127.888zM368.304 643.84h451.090v-73.796h-451.090v73.796zM368.304 483.812h451.090v-73.721h-451.090v73.721zM368.304 314.418h451.090v-73.721h-451.090v73.721zM512 886.504c-242.215 0-438.504-196.289-438.504-438.504 0-242.14 196.289-438.429 438.504-438.429 242.14 0 438.429 196.289 438.429 438.429 0 242.215-196.289 438.504-438.429 438.504zM512 960c282.746 0 512-229.179 512-512 0-282.746-229.254-512-512-512s-512 229.254-512 512c0 282.746 229.254 512 512 512z" />
<glyph unicode="&#xe91a;" glyph-name="ico26" d="M511.51 960c283.192 0 512.49-229.298 512.49-511.51 0-283.192-229.298-512.49-512.49-512.49-282.212 0-511.51 229.298-511.51 512.49 0 282.212 229.298 511.51 511.51 511.51zM73.493 475.927h44.096v-55.855h-44.096c13.719-220.478 190.101-396.861 410.58-410.58v44.096h55.855v-44.096c220.478 13.719 396.861 190.101 410.58 410.58h-44.096v55.855h44.096c-13.719 220.478-189.122 395.881-408.62 410.58v-71.533h-56.834v71.533c-220.478-12.739-397.841-189.122-411.56-410.58zM487.992 391.656v359.625h56.834v-303.77h201.86v-55.855h-258.695z" />
<glyph unicode="&#xe91b;" glyph-name="ico27" horiz-adv-x="1022" d="M113.026 680.494h260.701v42.738l0.855 5.983-300.875 0.855c-41.028 0-73.509-33.336-73.509-73.509v-647.052c0-40.174 32.481-73.509 73.509-73.509h647.052c40.174 0 72.654 33.336 72.654 73.509v315.406h-48.721v-276.087c0-35.045-28.207-64.107-64.107-64.107h-567.559c-35.045 0-64.107 29.062-64.107 64.107v567.559c0 35.9 29.062 64.107 64.107 64.107zM665.2 960v-56.414c-5.983-1.71-11.112-2.564-17.095-4.274l-28.207 48.721-97.442-56.414 28.207-49.576c-4.274-3.419-8.548-7.693-11.967-11.967l-49.576 29.062-56.414-98.297 48.721-28.207c-0.855-5.983-2.564-11.112-4.274-16.24h-56.414v-113.683h56.414c1.71-5.129 3.419-11.112 5.129-16.24l-49.576-28.207 56.414-98.297 49.576 28.207c3.419-3.419 7.693-7.693 11.967-11.967l-28.207-48.721 97.442-56.414 28.207 48.721c5.983-1.71 11.112-2.564 17.095-4.274v-56.414h112.828v56.414c5.129 1.71 11.112 2.564 16.24 4.274l28.207-48.721 98.297 56.414-28.207 48.721c4.274 4.274 7.693 8.548 11.967 11.967l48.721-28.207 56.414 98.297-48.721 28.207c1.71 5.129 3.419 11.112 4.274 16.24h56.414v113.683h-56.414c-0.855 5.129-2.564 10.257-4.274 16.24l48.721 28.207-56.414 98.297-48.721-28.207c-4.274 3.419-7.693 7.693-11.967 11.112l28.207 49.576-98.297 56.414-28.207-48.721c-5.129 1.71-11.112 2.564-16.24 4.274v56.414h-112.828zM721.614 799.306c76.928 0 140.18-62.397 140.18-140.18 0-76.928-63.252-140.18-140.18-140.18-77.783 0-140.18 63.252-140.18 140.18 0 77.783 62.397 140.18 140.18 140.18zM319.023 480.481v-40.174c-4.274-0.855-8.548-1.71-11.967-3.419l-20.514 35.045-69.235-40.174 19.659-35.045c-2.564-2.564-5.129-5.129-8.548-8.548l-35.045 20.514-40.174-70.090 35.045-20.514c-0.855-3.419-2.564-7.693-3.419-11.112h-40.174v-81.202h40.174c0.855-3.419 2.564-7.693 3.419-11.112l-35.045-20.514 40.174-70.090 35.045 20.514c3.419-2.564 5.983-5.983 8.548-8.548l-19.659-35.045 69.235-40.174 20.514 35.045c3.419-0.855 7.693-2.564 11.967-3.419v-40.174h80.347v40.174c4.274 0.855 7.693 1.71 11.967 3.419l19.659-35.045 70.090 40.174-20.514 35.045c3.419 2.564 5.983 5.983 8.548 8.548l35.045-20.514 40.174 70.090-34.19 20.514c0.855 3.419 1.71 7.693 2.564 11.112h40.174v81.202h-40.174c-0.855 3.419-1.71 7.693-2.564 11.112l34.19 20.514-40.174 70.090-35.045-20.514c-2.564 3.419-5.129 5.983-8.548 8.548l20.514 35.045-70.090 40.174-19.659-35.045c-4.274 1.71-7.693 2.564-11.967 3.419v40.174h-80.347zM359.196 365.943c54.705 0 100.007-44.447 100.007-99.152 0-55.559-45.302-100.007-100.007-100.007-55.559 0-100.007 44.447-100.007 100.007 0 54.705 44.447 99.152 100.007 99.152zM610.495 158.237v-19.659c-2.564-0.855-5.129-1.71-7.693-2.564l-11.967 16.24-22.224-16.24 11.112-16.24c-1.71-1.71-3.419-4.274-5.129-6.838l-18.805 6.838-9.402-25.643 18.805-6.838c0-2.564 0-5.129 0-6.838 0-0.855 0-1.71 0-1.71l-19.659-5.129 7.693-27.352 18.805 5.129c1.71-2.564 2.564-4.274 4.274-6.838l-12.821-15.386 21.369-17.95 12.821 15.386c4.274-1.71 8.548-3.419 12.821-4.274v-20.514h28.207v20.514c2.564 0 5.129 0.855 7.693 2.564l11.967-16.24 22.224 15.386-11.112 16.24c1.71 2.564 3.419 4.274 5.129 6.838l18.805-6.838 9.402 26.497-18.805 6.838c0 1.71 0 4.274 0 6.838 0 0 0 0.855 0 1.71l19.659 5.129-6.838 26.497-19.659-5.129c-1.71 2.564-2.564 5.129-4.274 6.838l12.821 15.386-21.369 17.95-12.821-15.386c-4.274 2.564-8.548 3.419-12.821 5.129v19.659h-28.207zM625.026 110.371c16.24 0 29.917-13.676 29.917-29.917 0-17.095-13.676-30.771-29.917-30.771-17.095 0-30.771 13.676-30.771 30.771 0 16.24 13.676 29.917 30.771 29.917z" />
<glyph unicode="&#xe91c;" glyph-name="ico28" horiz-adv-x="1051" d="M423.929 917.452v-332.884h-157.906l260.332-382.674 258.91 382.674h-157.906v341.419c0 18.494-15.648 34.142-34.142 34.142h-135.145c-18.494 0-34.142-15.648-34.142-34.142v0c0-1.423 0-4.268 0-7.113v0-1.423zM52.635 243.148c-28.452 0-52.635-24.184-52.635-52.635v-202.006c0-28.452 24.184-52.635 52.635-52.635h946.016c29.874 0 52.635 24.184 52.635 52.635v202.006c0 28.452-22.761 52.635-52.635 52.635h-335.729v-44.1c0-18.494-15.648-32.719-34.142-32.719h-206.274c-18.494 0-32.719 14.226-32.719 32.719v44.1h-337.152zM883.422 62.481h79.665v-79.665h-79.665v79.665zM734.051 62.481h79.665v-79.665h-79.665v79.665z" />
<glyph unicode="&#xe91d;" glyph-name="ico29" horiz-adv-x="1051" d="M625.866 246.305v332.491h158.911l-259.148 381.387-259.148-381.387h156.467v-342.271c0-19.558 17.114-34.227 34.227-34.227h136.908c17.114 0 31.782 14.669 31.782 34.227v0c0 2.445 0 4.89 0 7.334v0 2.445zM51.341 243.86c-26.893 0-51.341-24.448-51.341-53.785v-200.473c0-29.337 24.448-53.785 51.341-53.785h946.134c29.337 0 53.785 24.448 53.785 53.785v200.473c0 29.337-24.448 53.785-53.785 53.785h-334.936v-44.006c0-17.114-14.669-34.227-34.227-34.227h-205.362c-19.558 0-34.227 17.114-34.227 34.227v44.006h-337.381zM882.569 62.946h80.678v-78.233h-80.678v78.233zM733.437 62.946h80.678v-78.233h-80.678v78.233z" />
<glyph unicode="&#xe91e;" glyph-name="ico30" horiz-adv-x="910" d="M627.492 705.286c110.633-61.749 185.246-178.814 185.246-313.889 0-198.111-159.518-358.915-357.628-358.915s-358.915 160.804-358.915 358.915c0 123.497 63.035 232.844 159.518 297.166v111.92c-151.799-74.613-256-230.271-256-409.085 0-252.141 203.256-455.397 455.397-455.397 250.854 0 455.397 203.256 455.397 455.397 0 190.392-117.065 352.482-283.015 420.663v-106.774zM390.789 960h110.633v-531.296c0-30.874-24.442-55.317-55.317-55.317v0c-29.588 0-55.317 24.442-55.317 55.317v531.296z" />
<glyph unicode="&#xe91f;" glyph-name="ico31" horiz-adv-x="1346" d="M63.149 960.001h1219.262c34.003 0 63.149-40.421 63.149-87.579v-47.158c0-47.158-29.146-87.579-63.149-87.579h-1219.262c-34.003 0-63.149 40.421-63.149 87.579v47.158c0 47.158 29.146 87.579 63.149 87.579zM63.149 555.79h1219.262c34.003 0 63.149-33.684 63.149-80.842v-53.895c0-47.158-29.146-80.842-63.149-80.842h-1219.262c-34.003 0-63.149 33.684-63.149 80.842v53.895c0 47.158 29.146 80.842 63.149 80.842zM63.149 158.317h1219.262c34.003 0 63.149-40.421 63.149-87.579v-47.158c0-47.158-29.146-87.579-63.149-87.579h-1219.262c-34.003 0-63.149 40.421-63.149 87.579v47.158c0 47.158 29.146 87.579 63.149 87.579z" />
<glyph unicode="&#xe920;" glyph-name="ico32" horiz-adv-x="1691" d="M31.336 924.858c41.32 37.85 96.413 16.822 141.668-21.028 37.385-33.644 82.639-79.905 129.862-132.474l462.387-492.045c43.287-48.363 114.121-48.363 157.408-2.103l499.772 534.1c114.121 121.96 157.408 197.659 236.113 113.549 43.287-48.363 43.287-124.063 0-170.323l-733.917-784.327c-43.287-46.261-116.089-46.261-159.376 0l-733.917 784.327c-43.287 46.261-45.255 126.165 0 170.323z" />
<glyph unicode="&#xe921;" glyph-name="ico33" d="M413.365 960.009v-162.841c-28.184-9.395-53.236-18.789-78.289-31.316l-115.868 115.868-140.92-140.92 115.868-115.868c-12.526-25.052-21.921-50.105-31.316-78.289h-162.841v-197.288h162.841c9.395-28.184 18.789-53.236 31.316-75.157l-115.868-115.868 140.92-144.052 115.868 115.868c25.052-12.526 50.105-21.921 78.289-31.316v-162.841h197.288v162.841c28.184 9.395 53.236 18.789 75.157 31.316l115.868-115.868 144.052 144.052-115.868 115.868c12.526 21.921 21.921 46.973 31.316 75.157h162.841v197.288h-162.841c-9.395 28.184-18.789 53.236-31.316 78.289l115.868 115.868-144.052 140.92-115.868-115.868c-21.921 12.526-46.973 21.921-75.157 31.316v162.841h-197.288zM510.444 609.275c90.815 0 159.709-72.026 159.709-159.709 0-90.815-68.894-159.709-159.709-159.709-87.684 0-159.709 68.894-159.709 159.709 0 87.684 72.026 159.709 159.709 159.709z" />
<glyph unicode="&#xe922;" glyph-name="ico34" horiz-adv-x="750" d="M58.351 870.979h256.781l6.507 70.67c0.911 10.021 8.329 18.351 18.351 18.351h69.629c10.151 0 17.44-8.329 18.351-18.351l6.638-70.67h256.651c32.146 0 58.306-32.667 58.306-72.752v-789.474c0-39.955-26.16-72.752-58.306-72.752h-632.907c-32.016 0-58.306 32.797-58.306 72.752v789.474c0 40.085 26.29 72.752 58.306 72.752zM573.215 61.983c-2.213-1.432-4.685-3.124-5.987-3.904-10.542-6.247-21.735-9.501-33.448-3.904-6.768 3.384-23.166 11.583-31.235 8.85-4.425-1.432-10.021-5.206-14.186-7.418-9.891-5.336-19.913-8.98-30.845-11.583l-13.926-3.254-6.507 27.852 13.926 3.254c46.072 10.672 37.743 35.921 95.398 7.939 1.301-0.13 5.076 2.082 6.247 2.733 8.85 5.336 17.049 12.234 28.242 10.021 9.501-1.822 14.967-9.371 18.090-17.96 0.26-0.781 0.781-2.213 1.562-2.603 4.295-2.213 28.372 2.603 35.14 2.603h14.316v-28.632h-14.316c-4.295 0-9.11-0.781-13.405-1.432-20.043-3.124-39.955-3.254-49.066 17.44zM115.096 93.999h244.026c12.885 0 23.427-10.542 23.427-23.427v0c0-13.015-10.542-23.557-23.427-23.557h-244.026c-12.885 0-23.427 10.542-23.427 23.557v0c0 12.885 10.542 23.427 23.427 23.427zM125.768 183.15h453.304c12.885 0 23.427-10.542 23.427-23.427v0c0-13.015-10.542-23.557-23.427-23.557h-453.304c-13.015 0-23.557 10.542-23.557 23.557v0c0 12.885 10.542 23.427 23.557 23.427zM437.861 835.839l4.946-53.881h-136.004l5.076 53.881h-8.85c-16.789 0-30.454-13.665-30.454-30.454v-14.186c0-16.789 13.665-30.585 30.454-30.585h143.553c16.789 0 30.585 13.796 30.585 30.585v14.186c0 16.789-13.796 30.454-30.585 30.454h-8.72zM374.87 937.745c-12.364 0-22.255-10.021-22.255-22.255 0-12.364 9.891-22.255 22.255-22.255 12.234 0 22.255 9.891 22.255 22.255 0 12.234-10.021 22.255-22.255 22.255zM378.774 590.642c45.942 0 83.164-37.222 83.164-83.034 0-45.942-37.222-83.164-83.164-83.164-45.812 0-83.034 37.222-83.034 83.164 0 45.812 37.222 83.034 83.034 83.034zM438.642 433.033c86.027-20.043 148.759-81.863 148.759-155.136 0-1.171-0.13-2.343-0.13-3.514h-416.992c0 1.171 0 2.343 0 3.514 0 73.273 62.731 135.093 148.759 155.136 15.097-15.748 36.311-25.509 59.738-25.509 23.557 0 44.771 9.761 59.868 25.509zM691.258 629.035h-632.907v-558.853c0-33.838 22.125-61.43 49.196-61.43h534.516c27.071 0 49.196 27.591 49.196 61.43v558.853z" />
<glyph unicode="&#xe923;" glyph-name="ico35" horiz-adv-x="1176" d="M124.544 960.016h1016.402c19.161 0 34.95-15.79 34.95-34.95v-651.64c0-19.161-15.79-34.95-34.95-34.95h-856.907v39.208h836.328c4.435 0 7.984 3.548 7.984 7.984v627.157c0 4.435-3.548 7.984-7.984 7.984h-975.242c-4.435 0-7.984-3.548-7.984-7.984v-262.040c-16.854-1.419-32.999-5.855-47.547-12.774v287.055c0 19.161 15.79 34.95 34.95 34.95zM176.172 854.809h913.325v-35.66h-913.325v35.66zM959.275 371.712c-3.726-2.484-7.806-5.145-10.113-6.564-17.387-10.467-36.192-15.79-55.53-6.387-11.532 5.5-38.676 19.161-52.16 14.725-7.274-2.484-16.499-8.693-23.596-12.419-16.499-8.871-33.176-14.903-51.45-19.161l-23.064-5.5-10.822 46.305 23.064 5.5c76.82 17.919 62.982 59.966 158.963 13.306 2.129-0.177 8.516 3.548 10.29 4.613 14.725 8.693 28.564 20.225 47.192 16.677 15.79-3.193 25.015-15.612 29.983-29.983 0.532-1.242 1.419-3.726 2.839-4.435 7.097-3.548 47.192 4.258 58.546 4.258h23.773v-47.547h-23.773c-7.274 0-15.258-1.419-22.532-2.484-33.354-5.145-66.353-5.322-81.61 29.096zM298.764 481.886c0-82.502-66.881-149.382-149.382-149.382s-149.382 66.881-149.382 149.382c0 82.502 66.881 149.382 149.382 149.382s149.382-66.881 149.382-149.382zM52.16 337.117c18.628-30.16 55.176-46.66 97.223-46.66 42.224 0 78.772 16.499 97.4 47.015 54.821 89.949 12.951-250.153 12.951-292.91h-0.355c0.177-2.129 0.355-4.435 0.355-6.742 0-15.258-3.193-29.628-8.693-42.934-5.677-13.129-13.661-25.015-23.596-34.95-10.113-9.935-21.999-18.096-35.128-23.596-13.129-5.677-27.677 133.947-42.934 133.947-15.080 0-29.628-139.624-42.757-134.125-13.129 5.677-25.015 13.661-35.128 23.596-9.935 9.935-18.096 21.822-23.596 34.95-5.677 13.306-8.693 27.854-8.693 43.111 0 2.306 0 4.613 0.177 6.742h-0.177c0 43.111-42.402 383.036 12.951 292.555zM252.459 749.426h772.991v-35.66h-772.991v35.66zM357.488 652.38h562.933v-35.66h-562.933v35.66z" />
<glyph unicode="&#xe924;" glyph-name="ico36" d="M111.653 848.347c-148.665-149.282-148.665-391.094 0-539.759 128.925-128.925 326.94-146.198 474.371-52.434l311.518-311.518c17.889-17.889 59.836-6.786 91.913 25.908v0c32.694 32.077 43.798 74.024 25.908 91.913l-311.518 311.518c93.764 147.431 76.492 345.446-52.434 474.371-148.665 148.665-390.477 148.665-539.759 0zM190.612 769.388c105.484 105.484 276.357 105.484 381.841 0s105.484-276.357 0-381.841c-105.484-105.484-276.357-105.484-381.841 0s-105.484 276.357 0 381.841z" />
<glyph unicode="&#xe925;" glyph-name="ico37" horiz-adv-x="1207" d="M0 365.522c39.724 31.239 52.616 24.352 82.423 39.724 6.116 48.429 1.873 109.585-25.344 130.852-10.138 7.934-46.611 15.923-37.19 38.677 3.306 8.044 45.729 20.496 54.6 22.644-6.171 12.341-11.129 11.57-22.259 38.126-22.534 53.718-31.294 177.022 29.476 215.865 25.289 16.143 89.696 20.385 120.604 25.069 66.060 9.862 131.844 20.551 198.289 31.405 65.784 10.744 133.332 18.512 198.289 31.074 16.419 3.14 135.040 24.187 148.262 20.661 13.719-3.691 28.815-10.303 43.966-15.041 57.465-18.071 116.638-39.669 173.717-59.338 19.559-6.722 168.097-55.536 172.339-60.66 13.333-16.088-8.099-29.091-18.733-33.774-31.57-13.829-39.889-39.008-43.526-78.291-1.322-14.435-4.683-56.528 6.336-62.699 13.609-7.603 43.25-9.366 77.905-38.181v-5.675c-15.151-9.256-42.975-12.782-54.655-17.686l-6.281-4.132c27.768-38.181 30.633-106.775 19.504-159.227-10.854 6.226-22.093 11.57-33.608 16.088 6.942 41.818 4.573 98.181-15.923 114.103-16.639 12.837-43.195-1.653-61.872-8.926-80.825-31.57-166.995-59.999-248.702-91.9-40.606-15.868-82.478-31.349-124.131-46.060l3.967-156.747c3.306-0.386 47.658 13.113 105.453 31.184-7.879-23.305-12.397-47.548-13.443-71.9l-26.060-6.061c-19.449-4.628-41.873-17.465-60.385-21.818-10.799-2.589-15.647 3.857-31.57 0.275l-98.181-23.526-4.573-155.7c18.677 1.818 46.942 12.672 65.454 17.52 59.118 15.537 123.8 33.774 187.491 52.121 10.303-18.622 23.085-36.198 38.292-52.341l-290.354-79.779c-19.669-5.399-19.89-8.264-38.787-1.322l-108.924 40.275c-48.539 18.788-94.875 35.482-144.075 53.057-47.272 16.914-96.032 36.143-143.69 53.222-15.096 5.399-22.259 7.934-32.451 17.961-6.336 6.171-16.143 18.788-21.377 30.192-17.906 39.063-15.041 71.679-20.275 84.131v53.333l3.581 10.138c2.645 12.507 3.251 18.953 8.705 32.176 1.928 4.683 5.95 12.837 8.705 17.355 4.187 6.832 7.658 8.705 10.909 16.033l-31.9 10.964v6.556zM486.495 4.535l4.242 155.756c-5.344 4.408-333.77 125.343-369.251 137.905-36.198 12.782-84.517 46.335-84.958-60.164-0.11-28.429 3.636-56.418 13.168-78.071 10.578-24.187 25.234-26.611 51.294-34.214 34.104-9.862 372.116-121.1 385.505-121.211zM521.37 497.586l4.959 156.527c-13.994 7.438-46.942 18.016-61.487 23.030-97.905 33.608-209.694 78.456-308.646 114.379-16.639 6.005-47.162 22.424-63.195 11.295-30.027-20.826-24.352-112.836-8.319-149.364 11.57-26.391 22.589-25.124 51.019-34.435 42.644-14.049 85.894-28.374 128.428-41.212 32.617-9.807 244.79-81.376 257.242-80.219zM105.123 393.070c42.369-9.476 84.737-24.518 126.059-35.316 83.029-21.598 171.127-49.366 255.369-71.845 21.653-5.785 42.093-12.066 63.691-18.292 17.080-4.848 48.705-15.757 64.903-16.969-0.22 22.093-1.653 145.948-5.95 156.251l-515.365 120.384c3.691-19.724 10.799-26.556 12.782-62.479 0.992-18.071-3.361-61.652-1.488-71.735zM548.918 653.342l-5.124-156.637 509.911 143.139 0.992 6.722c0.496 23.195-8.264 47.603 2.369 98.181 2.314 11.129 7.218 19.945 8.65 28.54l-516.798-119.943zM0 272.3v86.666l31.9-10.964c-3.251-7.328-6.722-9.201-10.909-16.033-2.755-4.518-6.777-12.672-8.705-17.355-5.454-13.223-6.061-19.669-8.705-32.176l-3.581-10.138zM834.645 353.566c-85.123-85.178-85.123-223.303 0-308.426 85.233-85.178 223.303-85.178 308.481-0.055 85.178 85.178 85.178 223.303 0 308.536-85.178 85.123-223.248 85.123-308.481-0.055zM1137.175 173.348h-122.918v-122.257h-51.349l-0.055 122.257h-122.202v52.010h122.257v122.257h51.349l0.055-122.257h122.863v-52.010z" />
<glyph unicode="&#xe926;" glyph-name="ico38" horiz-adv-x="1316" d="M0 365.583c45.147 31.123 59.748 24.399 93.56 39.768 6.916 48.221 2.113 109.505-28.817 130.83-11.527 7.877-52.831 15.945-42.265 38.615 3.842 8.069 52.063 20.556 62.053 22.669-6.916 12.295-12.68 11.527-25.167 38.039-25.551 53.792-35.541 177.129 33.428 215.937 28.625 16.138 101.628 20.364 136.785 24.975 74.925 9.99 149.657 20.556 224.966 31.507 74.732 10.758 151.386 18.443 225.158 30.93 18.635 3.266 153.307 24.206 168.292 20.748 15.561-3.65 32.659-10.182 49.758-14.985 65.319-18.059 132.367-39.768 197.301-59.363 22.093-6.724 190.77-55.521 195.572-60.708 14.985-16.138-9.221-29.009-21.325-33.812-35.733-13.832-45.339-38.999-49.373-78.191-1.537-14.409-5.379-56.482 7.108-62.821 15.561-7.492 49.181-9.221 88.565-38.039v-5.763c-17.29-9.221-48.989-12.68-62.053-17.675l-7.108-4.034c38.039-46.3 34.773-137.17 12.103-190.001-10.566 9.221-21.901 17.482-33.812 24.975 13.832 40.728 15.177 116.998-12.487 135.825-18.827 12.872-48.989-1.537-70.122-8.837-91.831-31.507-189.617-59.94-282.216-91.831-46.107-15.945-93.752-31.507-141.012-46.107l4.611-156.765c3.266-0.384 44.186 10.566 99.707 25.743-7.685-22.285-12.487-45.915-14.216-70.314l-10.758-2.113c-22.093-4.803-47.452-17.482-68.393-21.901-12.295-2.497-17.867 3.842-35.925 0.192l-111.426-23.438-5.187-155.805c21.133 1.921 53.216 12.68 74.348 17.675 58.595 13.448 121.993 29.201 185.39 45.147 9.606-19.404 21.517-37.462 35.349-53.984l-294.127-71.274c-22.285-5.379-22.477-8.261-43.994-1.345l-123.53 40.344c-55.137 18.827-107.776 35.541-163.489 53.024-53.792 16.906-109.121 36.117-163.105 53.216-17.29 5.379-25.359 7.877-36.886 18.059-7.108 6.148-18.251 18.827-24.206 30.162-20.364 38.999-17.098 71.659-23.054 84.146v53.408l4.034 9.99c3.074 12.487 3.65 19.019 9.798 32.275 2.305 4.611 6.916 12.872 9.99 17.29 4.803 6.916 8.645 8.645 12.487 15.945l-36.31 11.143v6.532zM552.137 4.6l4.803 155.613c-6.148 4.419-378.849 125.451-419.193 137.938-40.92 12.872-95.865 46.3-96.249-60.132-0.192-28.433 4.034-56.482 14.793-77.998 12.103-24.206 28.817-26.704 58.403-34.196 38.615-9.99 422.267-121.224 437.444-121.224zM591.712 497.566l5.571 156.573c-15.945 7.492-53.216 18.059-69.738 23.054-111.042 33.62-238.030 78.383-350.224 114.308-19.019 5.956-53.6 22.477-71.851 11.335-34.004-20.94-27.472-112.771-9.414-149.465 13.256-26.32 25.743-24.975 57.826-34.388 48.605-14.024 97.594-28.433 145.815-41.112 37.078-9.99 277.797-81.456 292.014-80.304zM119.303 393.055c48.029-9.414 96.249-24.591 143.125-35.349 94.136-21.517 194.228-49.373 289.708-71.851 24.591-5.763 47.836-12.103 72.235-18.251 19.404-4.803 55.329-15.753 73.772-16.906-0.384 22.093-1.921 146.007-6.724 156.189l-584.988 120.456c4.227-19.788 12.295-26.704 14.601-62.629 1.153-18.059-3.842-61.477-1.729-71.659zM622.835 653.37l-5.763-156.765 578.841 143.317 0.961 6.532c0.576 23.246-9.221 47.644 2.69 98.363 2.69 10.951 8.261 19.788 9.798 28.433l-586.525-119.879zM0 272.407v86.644l36.31-11.143c-3.842-7.3-7.685-9.029-12.487-15.945-3.074-4.419-7.685-12.68-9.99-17.29-6.148-13.256-6.724-19.788-9.798-32.275l-4.034-9.99zM1080.643 418.607c-127.372 0-230.537-103.165-230.537-230.537 0-127.18 103.165-230.537 230.537-230.537s230.537 103.358 230.537 230.537c0 127.372-103.165 230.537-230.537 230.537zM1174.779 53.973l-94.712 94.52-93.944-93.944-39.576 39.576 93.944 93.944-93.944 94.136 39.96 40.152 94.136-94.136 94.136 94.136 39.383-39.576-93.944-94.136 94.52-94.52-39.96-40.152z" />
<glyph unicode="&#xe927;" glyph-name="ico39" horiz-adv-x="1316" d="M0 365.567c45.039 31.245 59.664 24.264 93.568 39.721 6.98 48.363 2.161 109.522-28.752 130.795-11.634 7.977-53.016 15.955-42.214 38.723 3.822 7.977 51.853 20.442 61.991 22.603-6.98 12.298-12.631 11.634-25.262 38.059-25.594 53.847-35.566 177.164 33.405 216.053 28.752 16.121 101.711 20.276 136.945 24.929 74.954 9.972 149.575 20.608 225.028 31.411 74.622 10.803 151.404 18.614 225.028 31.078 18.614 3.158 153.232 24.264 168.356 20.774 15.456-3.656 32.574-10.304 49.858-15.124 65.148-18.115 132.291-39.554 197.107-59.332 22.27-6.648 190.792-55.509 195.611-60.661 15.124-16.121-9.141-29.084-21.273-33.738-35.732-13.794-45.205-39.056-49.36-78.278-1.496-14.459-5.318-56.506 7.146-62.822 15.456-7.479 49.194-9.307 88.416-38.059v-5.651c-17.118-9.307-48.695-12.797-61.991-17.783l-7.146-4.155c38.225-46.202 34.901-137.111 12.132-189.961-10.47 9.141-21.772 17.45-33.738 24.929 13.794 40.884 15.29 117.167-12.465 135.947-18.78 12.963-49.028-1.496-70.134-8.808-91.906-31.577-189.628-59.996-282.365-91.906-46.036-15.955-93.568-31.411-140.767-46.036l4.487-156.888c3.324-0.332 44.042 10.47 99.717 25.76-7.645-22.27-12.465-45.87-14.127-70.3l-10.803-2.161c-22.104-4.653-47.532-17.45-68.472-21.938-12.298-2.493-17.783 3.989-35.898 0.332l-111.517-23.433-5.152-155.725c21.273 1.828 53.182 12.631 74.289 17.45 58.667 13.628 122.153 29.25 185.474 45.205 9.639-19.445 21.605-37.56 35.4-54.013l-294.165-71.131c-22.27-5.484-22.603-8.31-44.042-1.33l-123.483 40.219c-55.177 18.78-107.694 35.566-163.702 53.182-53.681 16.786-108.858 36.064-163.037 53.182-17.118 5.318-25.262 7.811-36.895 17.949-7.146 6.149-18.281 18.78-24.264 30.247-20.276 38.89-16.952 71.63-22.935 84.095v53.349l4.155 10.138c2.825 12.465 3.656 18.946 9.806 32.076 2.161 4.82 6.814 12.963 9.806 17.45 4.82 6.814 8.808 8.642 12.465 15.955l-36.231 10.969v6.648zM552.266 4.426l4.82 155.891c-6.149 4.321-378.925 125.311-419.31 137.776-41.050 12.797-95.895 46.368-96.393-60.163 0-28.253 4.155-56.34 14.958-77.945 12.132-24.264 28.752-26.757 58.334-34.236 38.723-9.972 422.301-121.156 437.591-121.322zM591.82 497.526l5.484 156.556c-15.789 7.479-53.182 18.115-69.802 23.101-111.018 33.571-237.991 78.444-350.173 114.342-18.946 5.983-53.515 22.436-71.796 11.301-34.070-20.774-27.588-112.846-9.473-149.409 13.296-26.425 25.76-25.095 58.002-34.402 48.363-13.96 97.39-28.419 145.753-41.216 37.061-9.806 277.878-81.269 292.005-80.272zM119.328 393.156c48.030-9.473 96.227-24.597 143.094-35.4 94.233-21.605 194.282-49.36 289.844-71.796 24.597-5.817 47.698-12.132 72.295-18.281 19.279-4.986 55.177-15.789 73.624-17.118-0.332 22.104-1.828 146.085-6.648 156.389l-585.006 120.325c4.155-19.777 12.298-26.591 14.459-62.489 1.163-18.115-3.822-61.658-1.662-71.63zM623.065 653.417l-5.817-156.722 578.691 143.094 1.163 6.814c0.499 23.267-9.307 47.532 2.659 98.221 2.659 11.135 8.144 19.943 9.806 28.419l-586.502-119.827zM0 272.332v86.588l36.231-10.969c-3.656-7.313-7.645-9.141-12.465-15.955-2.992-4.487-7.645-12.631-9.806-17.45-6.149-13.129-6.98-19.611-9.806-32.076l-4.155-10.138zM1080.766 418.75c-127.305 0-230.512-103.373-230.512-230.679s103.207-230.512 230.512-230.512c127.305 0 230.512 103.207 230.512 230.512s-103.207 230.679-230.512 230.679zM1102.039 313.548l74.622-50.357-132.457-196.609-74.622 50.191 132.457 196.775zM1109.185 324.517l17.949 26.924c5.318 7.811 15.955 9.806 23.766 4.487l46.368-31.078c7.811-5.318 9.806-15.955 4.653-23.766l-18.115-26.924-74.622 50.357zM956.784 17.223l39.887 19.611 40.053 19.445-36.895 24.929-36.895 24.763-3.158-44.374-2.992-44.374z" />
<glyph unicode="&#xe928;" glyph-name="ico40" horiz-adv-x="1316" d="M0 365.395c44.934 31.42 59.8 24.325 93.585 39.867 7.095 48.313 2.027 109.464-28.718 130.749-11.487 8.108-53.043 15.879-42.232 38.853 3.716 7.771 51.692 20.271 61.827 22.636-6.757 12.163-12.501 11.487-25.339 38.177-25.339 53.719-35.475 177.035 33.447 215.888 29.055 15.879 102.032 20.271 137.168 25.001 75.003 9.798 149.331 20.271 225.010 31.42 74.666 10.811 151.358 18.244 225.010 31.082 18.582 3.041 153.385 23.988 168.251 20.609 15.541-3.716 32.772-10.473 50.002-15.203 65.206-17.906 132.438-39.529 196.968-59.124 22.298-6.757 190.887-55.746 195.955-60.814 14.866-15.879-9.46-29.055-21.623-33.785-35.812-13.852-45.272-38.853-49.327-78.382-1.351-14.19-5.406-56.421 7.433-62.503 15.203-7.771 48.989-9.46 88.18-38.177v-5.744c-17.231-9.122-48.651-12.838-61.827-17.568l-7.095-4.392c38.177-46.286 34.799-136.83 12.163-189.873-10.811 9.122-21.96 17.568-33.785 25.001 13.514 40.88 15.203 116.897-12.501 135.817-18.92 12.838-48.989-1.351-70.273-8.784-91.896-31.758-189.536-60.138-282.445-91.896-45.948-15.879-93.585-31.42-140.885-45.948l4.73-156.764c3.379-0.338 43.921 10.473 99.667 25.677-7.771-22.298-12.501-45.948-14.19-70.273l-10.811-2.365c-21.96-4.73-47.637-17.568-68.584-21.96-12.163-2.365-17.568 4.054-35.812 0.338l-111.491-23.312-5.068-155.75c21.285 1.689 53.381 12.501 74.328 17.568 58.449 13.514 121.965 29.055 185.481 44.934 9.46-19.258 21.623-37.502 35.475-53.719l-294.27-71.287c-22.298-5.406-22.636-8.446-43.921-1.351l-123.654 40.205c-55.070 18.92-107.775 35.475-163.521 53.043-53.719 16.893-109.127 36.15-163.183 53.381-17.231 5.406-25.339 7.771-36.826 17.906-7.095 6.081-18.244 18.92-24.325 30.069-20.271 39.191-16.893 71.963-22.974 84.125v53.381l4.054 10.136c3.041 12.501 3.716 18.92 9.798 32.096 2.365 4.73 6.757 13.176 10.136 17.568 4.73 6.757 8.446 8.784 12.163 15.879l-36.15 11.149v6.419zM552.052 4.568l5.068 155.75c-6.081 4.392-379.071 125.343-419.276 137.844-40.88 12.838-95.95 46.286-96.288-60.138-0.338-28.38 4.054-56.421 14.866-78.044 11.825-24.325 28.718-26.69 58.111-34.461 38.853-9.798 422.316-120.951 437.52-120.951zM591.918 497.495l5.406 156.764c-15.879 7.433-53.381 17.906-69.598 22.974-111.154 33.447-238.186 78.382-350.354 114.194-18.92 6.081-53.719 22.636-71.963 11.487-33.785-20.947-27.366-112.843-9.122-149.331 12.838-26.69 25.339-25.339 57.773-34.461 48.313-14.19 97.302-28.38 145.615-41.218 37.164-9.798 278.053-81.423 292.243-80.409zM119.262 393.099c47.975-9.46 96.288-24.663 143.25-35.475 94.261-21.623 194.265-49.327 289.878-71.625 24.325-6.081 47.637-12.163 72.301-18.582 19.258-4.73 55.070-15.541 73.652-16.893-0.338 22.298-2.027 145.952-6.757 156.426l-585.161 120.276c4.392-19.595 12.501-26.69 14.528-62.503 1.014-17.906-3.716-61.489-1.689-71.625zM623.001 653.246l-5.744-156.426 578.742 142.912 1.014 6.757c0.676 23.312-9.122 47.637 2.703 98.315 2.703 11.149 8.108 19.933 9.798 28.38l-586.513-119.938zM0 272.148v86.828l36.15-11.149c-3.716-7.095-7.433-9.122-12.163-15.879-3.379-4.392-7.771-12.838-10.136-17.568-6.081-13.176-6.757-19.595-9.798-32.096l-4.054-10.136zM1080.792 418.776c-127.371 0-230.754-103.383-230.754-230.754s103.383-230.416 230.754-230.416c127.371 0 230.416 103.045 230.416 230.416s-103.045 230.754-230.416 230.754zM981.801 287.013c32.434 32.434 85.139 32.434 117.573 0s32.434-85.139 0-117.573c-32.434-32.434-85.139-32.434-117.573 0-32.096 32.434-32.096 85.139 0 117.573zM957.475 311.338c45.948 45.61 120.276 45.61 166.224 0 39.529-39.867 44.934-100.68 16.217-145.952l95.612-95.95c5.744-5.744 2.365-18.244-7.771-28.38v0c-10.136-10.136-22.636-13.514-28.38-7.771l-95.95 95.612c-45.272-28.718-106.086-23.312-145.952 16.217-45.61 45.948-45.61 120.276 0 166.224z" />
<glyph unicode="&#xe929;" glyph-name="ico41" d="M392.585 581.766c-18.45-8.2-26.651-28.701-18.45-47.151l69.702-264.456c0-7.175 2.050-15.375 6.15-23.576 17.425-39.976 63.552-58.426 104.553-41.001 39.976 17.425 58.426 64.577 41.001 104.553-3.075 7.175-7.175 13.325-12.3 19.475l-143.504 233.706c-8.2 18.45-28.701 26.651-47.151 18.45zM511.487 960c-281.882 0-511.487-229.606-511.487-511.487 0-282.907 229.606-512.513 511.487-512.513 282.907 0 512.513 229.606 512.513 512.513 0 281.882-229.606 511.487-512.513 511.487zM511.487 889.273c243.956 0 441.786-197.83 441.786-440.761 0-243.956-197.83-441.786-441.786-441.786-242.931 0-440.761 197.83-440.761 441.786 0 242.931 197.83 440.761 440.761 440.761zM89.177 448.513v1.025c0 11.275 9.225 20.501 20.501 20.501h57.401c11.275 0 20.501-9.225 20.501-20.501v-1.025c0-11.275-9.225-20.501-20.501-20.501h-57.401c-11.275 0-20.501 9.225-20.501 20.501zM505.337 872.873h1.025c11.275 0 20.501-9.225 20.501-21.526v-57.401c0-11.275-9.225-20.501-20.501-20.501h-1.025c-11.275 0-20.501 9.225-20.501 20.501v57.401c0 12.3 9.225 21.526 20.501 21.526zM208.080 738.595v0c8.2 8.2 21.526 8.2 29.726 0l41.001-41.001c8.2-7.175 8.2-20.501 0-28.701l-1.025-1.025c-8.2-8.2-21.526-8.2-29.726 0l-39.976 41.001c-8.2 8.2-8.2 21.526 0 29.726zM746.218 684.268v1.025c-7.175 9.225-5.125 22.551 5.125 28.701l47.151 32.801c9.225 7.175 21.526 5.125 28.701-5.125v0c7.175-9.225 4.1-22.551-5.125-29.726l-47.151-32.801c-9.225-6.15-21.526-4.1-28.701 5.125zM833.345 448.513v1.025c0 11.275 9.225 20.501 20.501 20.501h57.401c11.275 0 20.501-9.225 20.501-20.501v-1.025c0-11.275-9.225-20.501-20.501-20.501h-57.401c-11.275 0-20.501 9.225-20.501 20.501z" />
<glyph unicode="&#xe92a;" glyph-name="ico42" horiz-adv-x="1309" d="M552.007 484.102c-27.95-6.987-53.57-16.304-79.191-27.95-67.545 48.912-109.47 130.432-109.47 223.598 0 144.407 102.482 260.864 232.914 265.522-67.545-46.583-111.799-130.432-111.799-223.598s41.925-174.686 107.141-221.269c2.329 0 4.658-2.329 4.658-2.329l-44.254-13.975zM917.683 442.177c225.927-62.887 391.296-260.864 391.296-496.108 0-2.329 0-6.987 0-9.317h-1097.027c0 2.329 0 6.987 0 9.317 0 235.244 165.369 433.221 391.296 496.108 39.595-51.241 95.495-81.52 156.053-81.52 62.887 0 118.786 30.279 158.382 81.52zM759.301 959.247c123.445 0 223.598-109.47 223.598-244.56s-100.153-244.56-223.598-244.56c-121.115 0-221.269 109.47-221.269 244.56s100.153 244.56 221.269 244.56zM123.445-63.247h-123.445c0 2.329 0 6.987 0 9.317 0 235.244 181.673 430.892 428.563 496.108l2.329-2.329c-174.686-83.849-295.801-242.231-307.447-423.904 0-9.317 0-18.633 0-27.95v-51.241z" />
<glyph unicode="&#xe92b;" glyph-name="ico43" horiz-adv-x="1176" d="M124.689 959.998h1016.272c19.126 0 34.942-15.816 34.942-34.942v-651.767c0-19.126-15.816-34.942-34.942-34.942h-857.008v39.356h836.41c4.414 0 8.092 3.31 8.092 7.724v627.492c0 4.414-3.678 8.092-8.092 8.092h-975.076c-4.414 0-8.092-3.678-8.092-8.092v-262.252c-16.919-1.471-33.103-5.885-47.448-12.506v286.895c0 19.126 15.448 34.942 34.942 34.942zM176.183 854.803h913.328v-35.684h-913.328v35.684zM959.26 371.495c-3.678-2.207-7.724-5.149-9.931-6.253-17.655-10.667-36.414-15.816-55.54-6.621-11.402 5.517-38.621 19.494-52.23 14.713-7.356-2.207-16.552-8.46-23.54-12.506-16.552-8.828-33.103-14.713-51.494-19.126l-23.172-5.517-10.667 46.345 23.172 5.517c76.505 18.023 62.896 59.954 158.528 13.241 2.207 0 8.828 3.678 10.667 4.782 14.713 8.828 28.322 20.23 47.080 16.552 15.816-2.943 25.011-15.448 30.161-29.793 0.368-1.471 1.103-3.678 2.575-4.414 6.988-3.678 47.080 4.414 58.483 4.414h23.908v-47.816h-23.908c-7.356 0-15.080-1.471-22.437-2.575-33.103-5.149-66.207-5.149-81.655 29.057zM298.665 481.839c0-82.474-66.859-149.333-149.333-149.333s-149.333 66.859-149.333 149.333c0 82.474 66.859 149.333 149.333 149.333s149.333-66.859 149.333-149.333zM52.23 337.288c18.391-30.529 55.172-46.712 97.103-46.712 42.299 0 78.712 16.552 97.471 46.712 54.804 90.115 12.874-250.114 12.874-292.78h-0.368c0.368-2.207 0.368-4.414 0.368-6.621 0-15.448-2.943-29.793-8.828-43.034-5.517-13.241-13.609-25.011-23.54-34.942s-21.701-18.023-34.942-23.54c-13.241-5.885-27.586 133.884-43.034 133.884-15.080 0-29.425-139.77-42.666-134.252s-25.011 13.609-34.942 23.54c-10.299 9.931-18.391 22.069-23.908 35.31s-8.828 27.586-8.828 43.034c0 2.207 0.368 4.414 0.368 6.621h-0.368c0 43.034-42.299 382.895 13.241 292.78zM252.321 749.608h773.109v-35.684h-773.109v35.684zM357.516 652.137h562.981v-35.684h-562.981v35.684z" />
<glyph unicode="&#xe92c;" glyph-name="ico44" horiz-adv-x="1121" d="M608.593 959.886c283.035 0 512.115-229.080 512.115-512.115 0-282.578-229.080-511.657-512.115-511.657-21.948 0-43.896 1.372-65.386 4.115v73.159c12.346-1.829 24.691-3.201 37.037-4.115v43.896h56.698v-43.896c220.392 14.175 396.432 190.214 410.149 410.149h-43.896v56.698h43.896c-13.717 219.935-189.3 395.517-408.777 410.149v-70.873h-56.241v71.33c-255.6-15.546-442.156-246.455-409.234-496.568l99.679 5.944-126.657-168.266-145.861 151.805 100.594 5.944c-2.743 20.576-4.115 41.152-4.115 62.185 0 283.035 229.537 512.115 512.115 512.115zM584.817 391.073v359.852h56.698v-303.154h201.645v-56.698h-258.344z" />
<glyph unicode="&#xe92d;" glyph-name="ico45" horiz-adv-x="1284" d="M47.764 831.601c0-128.365 0-256.729 0-385.094v-388.079c197.025 0 444.798 128.365 588.089 5.97 2.985-2.985 2.985-2.985 5.97-5.97 0 2.985 2.985 2.985 5.97 5.97 74.631 62.69 164.187 62.69 265.685 44.778s211.951-53.734 319.419-50.749v773.173c-197.025 0-432.857 140.305-591.074 0-143.291 143.291-397.035 0-594.059 0zM0 870.409c214.936 0 486.591 188.069 641.823 20.897 170.158 161.202 426.887-20.897 641.823-20.897v-934.375c-119.409-2.985-238.818 35.823-349.271 56.719s-211.951 23.882-292.552-56.719c-155.232 152.246-426.887 0-641.823 0v468.68c0 149.261 0 316.434 0 465.695zM635.853 837.572v-773.173l5.97-5.97 5.97 5.97v773.173h-11.941z" />
<glyph unicode="&#xe92e;" glyph-name="ico46" horiz-adv-x="1364" d="M49.243 829.63c0-128.031 0-256.061 0-384.092v-386.554c194.508 0 443.183 128.031 588.449 4.924 0-2.462 2.462-4.924 4.924-4.924s2.462 2.462 4.924 4.924c73.864 64.015 167.425 61.553 265.91 44.318 103.409-19.697 211.743-54.167 322.539-49.243v770.646c-199.432 0-435.797 140.341-593.373 0-142.803 145.266-396.403 0-593.373 0zM0 871.486c214.205 0 487.501 187.122 642.616 19.697 172.349 162.5 428.41-19.697 642.616-19.697v-935.609c-118.182-4.924-238.826 36.932-349.622 56.629-110.796 22.159-211.743 22.159-292.993-56.629-155.114 152.652-428.41 0-642.616 0v467.804c0 147.728 0 317.615 0 467.804zM635.229 837.016v-773.108l7.386-4.924 4.924 4.924v773.108h-12.311zM755.873 418.454c19.697 17.235 46.78 7.386 71.402-12.311 17.235-14.773 41.856-36.932 64.015-59.091l9.849-9.849c19.697-22.159 56.629-22.159 78.788 0l251.137 248.675c56.629 59.091 78.788 93.561 118.182 54.167 22.159-22.159 22.159-59.091 0-81.25l-369.319-366.857c-19.697-22.159-56.629-22.159-78.788 0l-145.266 145.266c-22.159 22.159-22.159 59.091 0 81.25z" />
<glyph unicode="&#xe92f;" glyph-name="ico47" horiz-adv-x="904" d="M750.991 562.447v-212.831c20.078-5.354 37.48-13.386 54.881-22.756v235.587h-54.881zM488.633 33.715h-361.412c-40.157 0-72.282 32.125-72.282 70.944v457.788h-54.881v-501.961c0-45.511 37.48-81.652 81.652-81.652h445.741c-16.063 16.063-28.11 33.464-38.818 54.881zM164.701 466.071l471.174-30.787c13.386-1.339 22.756-12.047 21.417-25.433v-13.386c-1.339-13.386-12.047-22.756-25.433-21.417l-471.174 29.448c-12.047 1.339-22.756 12.047-21.417 25.433v13.386c1.339 13.386 13.386 24.094 25.433 22.756zM163.362 330.876l394.876-14.724c-22.756-16.063-41.495-36.141-56.22-58.897l-341.333 13.386c-13.386 0-22.756 10.708-22.756 24.094l1.339 13.386c0 13.386 10.708 24.094 24.094 22.756zM162.023 188.988h310.546c-5.354-17.401-8.031-36.141-8.031-54.881 0-2.677 0-4.016 0-6.693h-302.515c-13.386 0-24.094 10.708-24.094 24.094v13.386c0 13.386 10.708 24.094 24.094 24.094zM175.409 611.974l468.497-50.865c13.386-1.339 22.756-13.386 21.417-25.433l-1.339-13.386c-1.339-13.386-13.386-22.756-26.771-21.417l-468.497 50.865c-13.386 1.339-22.756 13.386-21.417 25.433l1.339 14.724c2.677 12.047 13.386 21.417 26.771 20.078zM206.196 772.601l461.804-95.038c13.386-2.677 21.417-16.063 18.74-28.11l-2.677-13.386c-2.677-13.386-14.724-21.417-28.11-18.74l-461.804 95.038c-13.386 2.677-21.417 14.724-18.74 28.11l2.677 13.386c2.677 12.047 16.063 21.417 28.11 18.74zM263.754 958.661l444.403-155.273c12.047-5.354 18.74-18.74 14.724-30.787l-4.016-13.386c-5.354-12.047-18.74-18.74-30.787-14.724l-444.403 156.612c-13.386 4.016-20.078 17.401-14.724 30.787l4.016 12.047c4.016 12.047 17.401 18.74 30.787 14.724zM709.495 324.183c-107.085 0-194.092-87.007-194.092-194.092s87.007-194.092 194.092-194.092c107.085 0 194.092 87.007 194.092 194.092s-87.007 194.092-194.092 194.092zM825.95 108.675h-95.038v-95.038h-40.157v95.038h-95.038v40.157h95.038v95.038h40.157v-95.038h95.038v-40.157z" />
<glyph unicode="&#xe930;" glyph-name="ico48" horiz-adv-x="841" d="M782.897 545.556v-477.687c0-40.368-33.64-75.353-75.353-75.353h-575.916c-40.368 0-74.008 33.64-74.008 75.353v477.687h-57.861v-524.783c0-45.75 39.022-84.773 86.118-84.773h668.762c47.096 0 86.118 37.677 86.118 84.773v524.783h-57.861zM171.996 444.636l491.143-32.294c13.456 0 24.221-12.11 22.875-25.566l-1.346-14.802c0-13.456-12.11-24.221-25.566-22.875l-491.143 32.294c-13.456 0-24.221 12.11-22.875 25.566v14.802c1.346 13.456 13.456 24.221 26.912 22.875zM170.65 304.694l491.143-20.184c13.456 0 24.221-12.11 24.221-25.566l-1.346-14.802c0-13.456-12.11-24.221-25.566-22.875l-491.143 18.838c-13.456 1.346-24.221 12.11-24.221 25.566v14.802c1.346 13.456 12.11 24.221 26.912 24.221zM169.305 155.332h491.143c13.456 0 25.566-10.765 25.566-24.221v-14.802c0-13.456-12.11-24.221-25.566-24.221h-491.143c-14.802 0-25.566 10.765-25.566 24.221v14.802c0 13.456 10.765 24.221 25.566 24.221zM182.761 596.689l488.452-52.478c14.802-1.346 24.221-13.456 22.875-26.912l-1.346-14.802c-1.346-13.456-14.802-22.875-28.258-21.53l-488.452 52.478c-13.456 1.346-24.221 14.802-21.53 28.258l1.346 13.456c1.346 13.456 13.456 24.221 26.912 21.53zM215.055 763.543l481.724-98.229c13.456-2.691 21.53-16.147 18.838-29.603l-2.691-13.456c-2.691-13.456-16.147-22.875-29.603-20.184l-481.724 99.574c-13.456 2.691-21.53 16.147-18.838 29.603l2.691 13.456c2.691 13.456 16.147 21.53 29.603 18.838zM274.261 958.654l464.231-162.817c13.456-4.037 20.184-18.838 14.802-30.949l-4.037-13.456c-4.037-13.456-18.838-20.184-32.294-16.147l-464.231 162.817c-12.11 5.382-18.838 18.838-14.802 32.294l5.382 13.456c4.037 12.11 17.493 18.838 30.949 14.802z" />
<glyph unicode="&#xe931;" glyph-name="ico49" horiz-adv-x="1150" d="M12.504 523.022l137.541 37.511 262.578-162.548c25.007-12.504 62.519-25.007 75.022-25.007l512.653 137.541 112.534-75.022c37.511-12.504 37.511-25.007 25.007-37.511l-662.698-175.052c-12.504 0-50.015 0-75.022 25.007l-375.112 237.571c-25.007 12.504-37.511 37.511-12.504 37.511zM12.504 235.437l137.541 37.511 262.578-162.548c25.007-12.504 62.519-25.007 75.022-25.007l512.653 137.541 112.534-75.022c37.511-12.504 37.511-25.007 25.007-37.511l-662.698-175.052c-12.504 0-50.015 0-75.022 25.007l-375.112 237.571c-25.007 12.504-37.511 37.511-12.504 37.511zM57.261 793.413l583.084 158.329c37.57 10.202 89.679 4.623 116.389-12.46l376.538-240.827c26.71-17.083 17.906-39.202-19.664-49.404l-583.084-158.329c-37.57-10.202-89.679-4.623-116.389 12.46l-376.538 240.827c-26.71 17.083-17.906 39.202 19.664 49.404z" />
<glyph unicode="&#xe932;" glyph-name="ico50" horiz-adv-x="691" d="M381.216 278.921c61.916 28.577 100.019 33.34 123.833 104.781 19.051 71.442-9.526 138.121-52.391 166.698-47.628 33.34-114.307 47.628-180.986 19.051-38.102-14.288-114.307-76.205-90.493-133.358 19.051-33.34 57.153-23.814 71.442 0 19.051 19.051 28.577 47.628 61.916 57.153 80.967 23.814 123.833-61.916 76.205-109.544-61.916-61.916-104.781 14.288-100.019-133.358 0-33.34 14.288-61.916 57.153-57.153 33.34 9.526 33.34 47.628 33.34 85.73zM324.062 140.8c-28.577-9.526-52.391-28.577-38.102-66.679 9.526-23.814 38.102-42.865 71.442-28.577 57.153 19.051 28.577 114.307-33.34 95.256zM466.946 960l223.851-223.851h-223.851v223.851zM143.076 960h142.884c128.595 0 109.544 19.051 109.544-109.544v-195.274h195.274c109.544 0 100.019 19.051 100.019-85.73v-490.567c0-80.967-66.679-142.884-147.647-142.884h-400.074c-76.205 0-142.884 61.916-142.884 142.884v738.233c0 76.205 66.679 142.884 142.884 142.884z" />
<glyph unicode="&#xe933;" glyph-name="ico51" horiz-adv-x="1648" d="M823.873 566.432c-61.79 0-113.283-51.492-113.283-102.984 0-61.79 51.492-113.283 113.283-113.283s102.984 51.492 102.984 113.283c0 10.298 0 30.895-10.298 41.194-10.298-10.298-20.597-20.597-41.194-20.597s-30.895 20.597-30.895 41.194c0 10.298 0 30.895 10.298 30.895-10.298 10.298-20.597 10.298-30.895 10.298zM0 463.448c556.114-700.292 1143.124-700.292 1647.746 0-504.622 659.098-1091.632 659.098-1647.746 0zM823.873 741.505c154.476 0 278.057-123.581 278.057-278.057 0-164.775-123.581-288.356-278.057-288.356s-278.057 123.581-278.057 288.356c0 154.476 123.581 278.057 278.057 278.057z" />
<glyph unicode="&#xe934;" glyph-name="ico52" horiz-adv-x="1105" d="M0 455.414c237.252 289.151 481.918 385.535 719.17 311.393l-118.626-126.040c-14.828 0-29.657 7.414-51.899 7.414-103.798 0-185.353-88.97-185.353-192.767 0-22.242 0-44.485 14.828-66.727l-148.283-155.697c-81.555 51.899-155.697 126.040-229.838 222.424zM882.281 677.838c74.141-51.899 148.283-126.040 222.424-222.424-222.424-303.979-467.090-407.777-711.756-318.808l118.626 133.454c14.828 0 29.657 0 37.071 0 103.798 0 192.767 81.555 192.767 185.353 0 22.242-7.414 37.071-7.414 51.899l148.283 170.525zM1000.907 944.747v0c29.657-22.242 29.657-59.313 7.414-81.555l-830.382-904.524c-22.242-22.242-59.313-29.657-81.555-7.414v0c-22.242 22.242-22.242 59.313 0 81.555l822.968 904.524c22.242 29.657 59.313 29.657 81.555 7.414z" />
<glyph unicode="&#xe935;" glyph-name="ico53" horiz-adv-x="1505" d="M326.833 742.529v-592.859h57.006v592.859h-57.006zM471.247 742.529v-592.859h15.202v592.859h-15.202zM1117.311 742.529v-592.859h60.806v592.859h-60.806zM1086.908 742.529v-592.859h19.002v592.859h-19.002zM1052.705 742.529v-592.859h7.601v592.859h-7.601zM976.697 742.529v-592.859h45.605v592.859h-45.605zM927.292 742.529v-592.859h19.002v592.859h-19.002zM881.688 742.529v-592.859h34.203v592.859h-34.203zM805.68 742.529v-592.859h34.203v592.859h-34.203zM744.874 742.529v-592.859h34.203v592.859h-34.203zM684.068 742.529v-592.859h34.203v592.859h-34.203zM653.665 742.529v-592.859h11.401v592.859h-11.401zM611.861 742.529v-592.859h22.802v592.859h-22.802zM516.851 742.529v-592.859h41.804v592.859h-41.804zM494.049 742.529v-592.859h15.202v592.859h-15.202zM395.239 742.529v-592.859h11.401v592.859h-11.401zM425.642 742.529v-592.859h26.603v592.859h-26.603zM79.808 959.151c-45.605 0-79.808-34.203-79.808-79.808v-866.486c0-41.804 34.203-76.008 79.808-76.008h1345.334c45.605 0 79.808 34.203 79.808 76.008v866.486c0 45.605-34.203 79.808-79.808 79.808h-1345.334zM110.211 928.748h1284.528c41.804 0 76.008-34.203 76.008-76.008v-813.281c0-41.804-34.203-72.207-76.008-72.207h-1284.528c-41.804 0-76.008 30.403-76.008 72.207v813.281c0 41.804 34.203 76.008 76.008 76.008z" />
<glyph unicode="&#xe936;" glyph-name="ico54" horiz-adv-x="1043" d="M69.097 959.319c-34.549 0-69.097-34.549-69.097-69.097v-884.443c0-34.549 34.549-69.097 69.097-69.097h905.173c34.549 0 69.097 34.549 69.097 69.097v884.443c0 34.549-34.549 69.097-69.097 69.097h-905.173zM483.68 897.131v-200.382h103.646v200.382h-103.646zM386.944 931.68h421.493c41.458 0 76.007-27.639 76.007-69.097v-186.562c0-6.91-6.91-13.819-13.819-13.819h-483.68c-13.819 0-20.729 6.91-20.729 13.819v241.84c0 6.91 6.91 13.819 20.729 13.819zM525.138 558.555c82.917 0 145.104-62.187 145.104-145.104s-62.187-145.104-145.104-145.104c-82.917 0-145.104 62.187-145.104 145.104s62.187 145.104 145.104 145.104zM525.138 441.090c13.819 0 27.639-13.819 27.639-27.639s-13.819-27.639-27.639-27.639c-13.819 0-27.639 13.819-27.639 27.639s13.819 27.639 27.639 27.639zM559.687 503.278h13.819c6.91 0 13.819-6.91 13.819-13.819v-13.819c0-6.91-6.91-13.819-13.819-13.819h-13.819c-6.91 0-13.819 6.91-13.819 13.819v13.819c0 6.91 6.91 13.819 13.819 13.819z" />
<glyph unicode="&#xe937;" glyph-name="ico55" horiz-adv-x="2006" d="M125.558 959.996c-69.754 0-125.558-61.384-125.558-139.508v-541.293c0-75.335 55.803-139.508 125.558-139.508h1473.21l-30.692 86.495 198.102-86.495h114.397c69.754 0 125.558 64.174 125.558 139.508v541.293c0 75.335-55.803 139.508-125.558 139.508h-1755.017zM298.548 329.418l-119.977 440.847h69.754l64.174-253.905 22.321-94.866c0 2.79 5.58 33.482 19.531 89.285l64.174 259.486h66.964l61.384-256.696 19.531-83.705 22.321 86.495 69.754 253.905h64.174l-125.558-440.847h-69.754l-61.384 265.066-16.741 75.335-80.915-340.401h-69.754zM851.002 329.418l-119.977 440.847h69.754l64.174-253.905 22.321-94.866c0 2.79 8.371 33.482 19.531 89.285l64.174 259.486h69.754l58.594-256.696 19.531-83.705 22.321 86.495 69.754 253.905h64.174l-122.767-440.847h-69.754l-64.174 265.066-16.741 75.335-80.915-340.401h-69.754zM1403.455 329.418l-119.977 440.847h69.754l64.174-253.905 22.321-94.866c0 2.79 8.371 33.482 19.531 89.285l64.174 259.486h69.754l58.594-256.696 19.531-83.705 22.321 86.495 69.754 253.905h64.174l-122.767-440.847h-69.754l-64.174 265.066-13.951 75.335-80.915-340.401h-72.544zM1590.397 201.070l75.335-209.263 50.223 58.594 114.397-114.397 19.531 19.531-114.397 114.397 55.803 44.643-200.892 86.495z" />
<glyph unicode="&#xe938;" glyph-name="ico56" horiz-adv-x="883" d="M262.895 960c-135.812 0-248.789-103.362-262.009-235.568-15.624-141.822 216.338-656.225 262.009-787.23 45.671 133.408 275.23 643.005 263.211 781.221-10.817 134.61-124.995 241.577-263.211 241.577zM262.895 831.399c93.746 0 168.263-75.718 168.263-168.263s-74.516-168.263-168.263-168.263c-92.545 0-168.263 75.718-168.263 168.263s75.718 168.263 168.263 168.263zM563.365 762.892h296.864v-805.258h-379.793v421.859c-7.211-20.432-15.624-40.864-22.836-61.296v-382.197h425.465v874.967h-337.728c7.211-15.624 13.221-31.249 18.028-48.075zM587.402 59.793h145.427v-102.16h-145.427v102.16zM604.229 664.338v-42.066h42.066v42.066h-42.066zM691.966 664.338v-42.066h42.066v42.066h-42.066zM780.905 664.338v-42.066h40.864v42.066h-40.864zM536.924 546.554h20.432v-42.066h-33.653c4.808 14.423 9.615 27.643 13.221 42.066zM604.229 546.554v-42.066h42.066v42.066h-42.066zM691.966 546.554v-42.066h42.066v42.066h-42.066zM780.905 546.554v-42.066h40.864v42.066h-40.864zM515.29 428.77v-42.066h42.066v42.066h-42.066zM604.229 428.77v-42.066h42.066v42.066h-42.066zM691.966 428.77v-42.066h42.066v42.066h-42.066zM780.905 428.77v-42.066h40.864v42.066h-40.864zM515.29 310.986v-42.066h42.066v42.066h-42.066zM604.229 310.986v-42.066h42.066v42.066h-42.066zM691.966 310.986v-42.066h42.066v42.066h-42.066zM780.905 310.986v-42.066h40.864v42.066h-40.864zM515.29 193.202v-42.066h42.066v42.066h-42.066zM604.229 193.202v-42.066h42.066v42.066h-42.066zM691.966 193.202v-42.066h42.066v42.066h-42.066zM780.905 193.202v-42.066h40.864v42.066h-40.864z" />
<glyph unicode="&#xe939;" glyph-name="ico57" horiz-adv-x="528" d="M263.791 960c-135.033 0-247.56-101.275-264.44-236.308-16.879-140.659 219.429-658.286 264.44-787.692 45.011 135.033 275.692 641.407 264.44 782.066-11.253 135.033-129.407 241.934-264.44 241.934zM263.791 830.593c90.022 0 168.791-73.143 168.791-168.791 0-90.022-78.769-168.791-168.791-168.791-95.648 0-168.791 78.769-168.791 168.791 0 95.648 73.143 168.791 168.791 168.791z" />
<glyph unicode="&#xe93a;" glyph-name="ico58" horiz-adv-x="497" d="M25.33 904.145v-943.321h446.836v943.321h-446.836zM0.505 960h496.485v-1024h-496.485v1024zM155.657 78.739v-117.915h167.564v117.915h-167.564zM68.772 786.23h49.648v-49.648h-49.648v49.648zM174.275 786.23h49.648v-49.648h-49.648v49.648zM273.572 786.23h49.648v-49.648h-49.648v49.648zM379.075 786.23h49.648v-49.648h-49.648v49.648zM68.772 649.697h49.648v-49.648h-49.648v49.648zM174.275 649.697h49.648v-49.648h-49.648v49.648zM273.572 649.697h49.648v-49.648h-49.648v49.648zM379.075 649.697h49.648v-49.648h-49.648v49.648zM68.772 513.164h49.648v-49.648h-49.648v49.648zM174.275 513.164h49.648v-49.648h-49.648v49.648zM273.572 513.164h49.648v-49.648h-49.648v49.648zM379.075 513.164h49.648v-49.648h-49.648v49.648zM68.772 370.424h49.648v-43.442h-49.648v43.442zM174.275 370.424h49.648v-43.442h-49.648v43.442zM273.572 370.424h49.648v-43.442h-49.648v43.442zM379.075 370.424h49.648v-43.442h-49.648v43.442zM68.772 233.891h49.648v-49.648h-49.648v49.648zM174.275 233.891h49.648v-49.648h-49.648v49.648zM273.572 233.891h49.648v-49.648h-49.648v49.648zM379.075 233.891h49.648v-49.648h-49.648v49.648z" />
<glyph unicode="&#xe93b;" glyph-name="ico59" horiz-adv-x="2361" d="M2092.774 582.271c0 46.3-9.26 83.341-37.040 111.121-27.78 37.040-55.56 46.3-92.601 46.3-46.3 0-74.080-18.52-101.861-46.3s-46.3-74.080-46.3-120.381c0-46.3 18.52-83.341 46.3-101.861 27.78-27.78 55.56-46.3 92.601-46.3 46.3 0 74.080 18.52 101.861 46.3 27.78 18.52 37.040 64.82 37.040 111.121zM1740.891 276.689l83.341 9.26c9.26-46.3 18.52-74.080 37.040-83.341 27.78-18.52 46.3-27.78 83.341-27.78 18.52 0 46.3 0 64.82 18.52 18.52 9.26 37.040 27.78 46.3 46.3 18.52 18.52 27.78 46.3 37.040 83.341 9.26 27.78 9.26 64.82 9.26 101.861 0 0 0 9.26 0 18.52-18.52-27.78-37.040-55.56-74.080-64.82-27.78-18.52-55.56-27.78-92.601-27.78-55.56 0-101.861 18.52-148.161 64.82-37.040 37.040-55.56 92.601-55.56 157.421 0 74.080 18.52 129.641 64.82 175.941 37.040 37.040 92.601 64.82 157.421 64.82 37.040 0 83.341-18.52 120.381-37.040 37.040-27.78 64.82-64.82 83.341-101.861 18.52-46.3 27.78-111.121 27.78-203.721 0-83.341-9.26-157.421-27.78-203.721-18.52-55.56-46.3-92.601-83.341-120.381s-83.341-46.3-138.901-46.3c-46.3 0-92.601 18.52-129.641 46.3s-55.56 74.080-64.82 129.641zM1555.69 582.271c0 46.3-18.52 83.341-46.3 111.121-18.52 37.040-55.56 46.3-92.601 46.3s-64.82-18.52-92.601-46.3c-27.78-27.78-46.3-74.080-46.3-120.381s18.52-83.341 37.040-101.861c27.78-27.78 64.82-46.3 101.861-46.3s74.080 18.52 101.861 46.3c18.52 18.52 37.040 64.82 37.040 111.121zM1203.808 276.689l83.341 9.26c9.26-46.3 18.52-74.080 37.040-83.341 18.52-18.52 46.3-27.78 74.080-27.78s55.56 0 74.080 18.52c18.52 9.26 37.040 27.78 46.3 46.3s18.52 46.3 27.78 83.341c9.26 27.78 18.52 64.82 18.52 101.861 0 0 0 9.26 0 18.52-18.52-27.78-46.3-55.56-74.080-64.82-27.78-18.52-55.56-27.78-92.601-27.78-55.56 0-111.121 18.52-148.161 64.82-37.040 37.040-55.56 92.601-55.56 157.421 0 74.080 18.52 129.641 55.56 175.941 46.3 37.040 101.861 64.82 157.421 64.82 46.3 0 92.601-18.52 129.641-37.040 37.040-27.78 64.82-64.82 83.341-101.861 18.52-46.3 27.78-111.121 27.78-203.721 0-83.341-9.26-157.421-27.78-203.721-18.52-55.56-46.3-92.601-83.341-120.381-46.3-27.78-83.341-46.3-138.901-46.3s-101.861 18.52-129.641 46.3c-37.040 27.78-55.56 74.080-64.82 129.641zM1009.347 582.271c0 46.3-9.26 83.341-37.040 111.121-27.78 37.040-55.56 46.3-92.601 46.3s-74.080-18.52-101.861-46.3c-27.78-27.78-37.040-74.080-37.040-120.381s9.26-83.341 37.040-101.861c27.78-27.78 64.82-46.3 101.861-46.3s74.080 18.52 92.601 46.3c27.78 18.52 37.040 64.82 37.040 111.121zM666.724 276.689l83.341 9.26c0-46.3 18.52-74.080 37.040-83.341 18.52-18.52 46.3-27.78 74.080-27.78s46.3 0 74.080 18.52c18.52 9.26 27.78 27.78 46.3 46.3 9.26 18.52 18.52 46.3 27.78 83.341 9.26 27.78 18.52 64.82 18.52 101.861 0 0 0 9.26-9.26 18.52-9.26-27.78-37.040-55.56-64.82-64.82-27.78-18.52-64.82-27.78-92.601-27.78-64.82 0-111.121 18.52-148.161 64.82-37.040 37.040-64.82 92.601-64.82 157.421 0 74.080 27.78 129.641 64.82 175.941 46.3 37.040 92.601 64.82 157.421 64.82 46.3 0 83.341-18.52 120.381-37.040 37.040-27.78 64.82-64.82 92.601-101.861 18.52-46.3 27.78-111.121 27.78-203.721 0-83.341-9.26-157.421-27.78-203.721-18.52-55.56-55.56-92.601-92.601-120.381s-83.341-46.3-129.641-46.3c-55.56 0-101.861 18.52-129.641 46.3-37.040 27.78-55.56 74.080-64.82 129.641zM435.223 110.008h-83.341v546.344c-27.78-18.52-55.56-37.040-83.341-55.56-37.040-18.52-64.82-37.040-92.601-46.3v83.341c46.3 18.52 92.601 46.3 129.641 83.341 37.040 27.78 55.56 55.56 74.080 92.601h55.56v-703.765zM101.861 961.933c-55.56 0-101.861-46.3-101.861-101.861v-824.145c0-55.56 46.3-101.861 101.861-101.861h2157.594c55.56 0 101.861 46.3 101.861 101.861v824.145c0 55.56-46.3 101.861-101.861 101.861h-2157.594zM101.861 934.153h2157.594c37.040 0 64.82-37.040 64.82-74.080v-824.145c0-37.040-27.78-64.82-64.82-64.82h-2157.594c-37.040 0-64.82 27.78-64.82 64.82v824.145c0 37.040 27.78 74.080 64.82 74.080z" />
<glyph unicode="&#xe93c;" glyph-name="ico60" d="M847.281 425.002v-2.421c0 0 0 0 0 2.421zM568.889 608.983c7.262-4.842 16.946-2.421 24.208 2.421s9.683 9.683 16.946 14.525c4.842-7.262 7.262-14.525 12.104-19.366-24.208-12.104-31.47-4.842-53.258-2.421v4.842zM568.889 608.983v0zM651.196 635.612h7.262c0-16.946 21.787-31.47 24.208-41.154-4.842 0-12.104 2.421-14.525 2.421-7.262 4.842-4.842 2.421-7.262 12.104-2.421 7.262-7.262 16.946-9.683 26.629zM513.21 647.716c-7.262 0 0 4.842-24.208 4.842 2.421 2.421 29.050 16.946 38.733 16.946s16.946-7.262 19.366-14.525c-9.683-2.421-21.787-7.262-33.891-7.262zM273.551 817.173v0c0 0 0 0 0 0zM489.002 817.173c0-9.683 7.262-21.787 12.104-29.050l-14.525-12.104c-4.842 7.262-31.47 38.733-38.733 65.362-7.262-2.421-14.525-9.683-21.787-16.946-12.104-12.104-14.525-2.421-14.525-26.629-4.842 2.421-14.525 4.842-21.787 7.262-2.421-14.525-16.946-31.47-19.366-45.995 9.683-14.525 19.366-26.629 29.050-41.154 16.946 12.104 9.683 7.262 31.47 12.104v-14.525c-9.683 0-48.416-9.683-55.678-12.104 0-9.683 4.842-16.946 4.842-29.050 2.421-9.683-2.421-21.787-2.421-33.891 0-9.683 7.262-14.525 9.683-21.787-4.842-9.683-16.946-19.366-21.787-31.47-7.262-14.525-14.525-16.946-26.629-24.208-38.733-29.050-36.312-70.203-36.312-116.199 0-21.787 31.47-62.941 45.995-77.466l24.208-19.366c36.312-26.629 29.050-19.366 72.624-9.683 12.104 2.421 19.366 4.842 29.050 12.104 2.421-7.262 4.842-9.683 12.104-12.104 21.787-12.104 26.629 9.683 29.050-14.525 2.421-14.525 0-29.050 9.683-38.733 4.842-4.842 9.683-4.842 12.104-12.104 2.421-4.842 2.421-12.104 4.842-19.366 7.262-29.050 7.262-12.104-2.421-43.574-16.946-48.416 12.104-50.837 19.366-75.045 12.104-43.574 16.946-4.842 16.946-89.57 14.525 0 36.312 4.842 53.258 7.262 24.208 4.842 45.995 12.104 62.941 26.629 12.104 9.683 12.104 26.629 50.837 45.995 0 12.104-2.421 14.525-2.421 26.629 0 9.683 16.946 29.050 24.208 33.891-4.842-16.946-14.525-33.891 0-48.416 7.262-7.262 16.946-9.683 26.629-9.683 16.946 0 41.154 31.47 48.416 48.416 26.629 67.783 2.421 89.57-2.421 130.723-7.262-7.262-14.525-29.050-21.787-38.733-7.262-12.104-9.683-31.47-26.629-33.891 0 12.104-2.421 19.366-4.842 31.47 0 9.683 14.525 36.312 21.787 43.574 31.47 29.050 60.52 70.203 60.52 113.778-7.262 0-7.262 0-16.946 0l36.312 24.208c16.946 9.683 21.787 12.104 31.47 31.47 14.525-9.683 19.366-26.629 26.629-43.574 2.421-9.683 4.842-14.525 9.683-24.208l4.842-21.787c2.421-2.421 4.842-4.842 4.842-4.842 0-45.995-31.47-123.461-53.258-159.773l-41.154-62.941c-31.47-38.733-70.203-72.624-111.357-99.253-45.995-29.050-96.832-50.837-150.090-62.941-111.357-21.787-234.818-2.421-326.809 53.258-12.104 7.262-50.837 31.47-55.678 41.154 9.683 4.842 9.683 9.683 19.366 14.525-21.787 45.995 2.421 41.154 2.421 87.149 0 16.946-7.262 24.208-21.787 31.47-9.683 7.262-16.946 21.787-29.050 26.629-21.787 4.842-26.629-2.421-36.312 16.946-9.683 21.787-16.946 33.891-33.891 48.416-12.104 9.683-38.733 21.787-53.258 31.47-14.525 12.104-9.683 21.787-12.104 43.574-9.683 70.203 2.421 50.837 2.421 104.095 2.421 19.366 4.842 31.47 14.525 48.416l31.47 50.837c14.525 24.208 9.683 31.47 21.787 38.733 4.842 4.842 9.683 7.262 14.525 9.683 26.629 21.787 7.262 45.995 4.842 62.941 14.525 0 14.525 14.525 16.946 24.208 7.262 24.208 21.787 2.421 26.629 21.787 16.946-2.421 12.104-7.262 29.050 0 24.208 9.683 16.946 2.421 31.47 21.787 7.262 7.262 14.525 12.104 19.366 19.366 4.842 4.842 7.262 7.262 9.683 9.683l-4.842 7.262c4.842 0 4.842 0 9.683 0 4.842 16.946 19.366 29.050 29.050 43.574 2.421 2.421 9.683 14.525 12.104 14.525 12.104 0 4.842-7.262 16.946-2.421 19.366 14.525-2.421 9.683 50.837 24.208 50.837 12.104 113.778 14.525 167.035 9.683 7.262-2.421 26.629-2.421 29.050-7.262-14.525-2.421-45.995-21.787-65.362-26.629-21.787-7.262-38.733-29.050-38.733-53.258zM0 466.156c0-91.991 12.104-159.773 48.416-234.818 26.629-60.52 79.887-133.144 133.144-174.298l33.891-26.629c26.629-19.366 50.837-33.891 77.466-45.995 48.416-24.208 130.723-48.416 200.927-48.416 91.991 0 159.773 9.683 234.818 45.995 26.629 14.525 55.678 29.050 77.466 45.995 29.050 21.787 26.629 19.366 50.837 41.154 7.262 4.842 9.683 7.262 16.946 14.525 87.149 87.149 150.090 217.872 150.090 343.754v41.154c0 96.832-41.154 203.348-91.991 273.551-21.787 29.050-19.366 26.629-41.154 50.837-14.525 16.946-29.050 31.47-48.416 45.995-41.154 33.891-55.678 45.995-111.357 72.624-48.416 24.208-130.723 48.416-200.927 48.416-91.991 0-159.773-12.104-234.818-48.416-53.258-24.208-121.040-70.203-159.773-116.199-16.946-21.787-21.787-21.787-41.154-50.837-53.258-75.045-94.411-176.719-94.411-278.392z" />
<glyph unicode="&#xe93d;" glyph-name="ico61" horiz-adv-x="1042" d="M0 875.010h119.973v58.408c0 14.207 12.629 26.836 26.836 26.836h7.893c15.786 0 26.836-12.629 26.836-26.836v-58.408h115.238v58.408c0 14.207 11.050 26.836 26.836 26.836h7.893c14.207 0 26.836-12.629 26.836-26.836v-58.408h113.659v58.408c0 14.207 12.629 26.836 26.836 26.836h7.893c15.786 0 26.836-12.629 26.836-26.836v-58.408h115.238v58.408c0 14.207 11.050 26.836 26.836 26.836h7.893c14.207 0 26.836-12.629 26.836-26.836v-58.408h113.659v58.408c0 14.207 12.629 26.836 26.836 26.836h7.893c15.786 0 26.836-12.629 26.836-26.836v-58.408h156.281v-939.265h-1041.873v939.265zM885.592 835.545v-34.729c0-14.207-11.050-26.836-26.836-26.836h-7.893c-14.207 0-26.836 12.629-26.836 26.836v34.729h-113.659v-34.729c0-14.207-12.629-26.836-26.836-26.836h-7.893c-15.786 0-26.836 12.629-26.836 26.836v34.729h-115.238v-34.729c0-14.207-11.050-26.836-26.836-26.836h-7.893c-14.207 0-26.836 12.629-26.836 26.836v34.729h-113.659v-34.729c0-14.207-12.629-26.836-26.836-26.836h-7.893c-15.786 0-26.836 12.629-26.836 26.836v34.729h-115.238v-34.729c0-14.207-11.050-26.836-26.836-26.836h-7.893c-14.207 0-26.836 12.629-26.836 26.836v34.729h-75.773v-183.117h953.472v183.117h-112.080zM997.673 619.278h-953.472v-642.489h953.472v642.489zM315.719 215.157c7.893-7.893 17.365-12.629 26.836-15.786 9.472-4.736 20.522-6.314 33.151-6.314 18.943 0 34.729 4.736 47.358 14.207 11.050 9.472 17.365 22.1 17.365 39.465s-6.314 29.993-17.365 37.886c-9.472 9.472-26.836 14.207-48.936 14.207h-7.893v31.572h4.736c22.1 0 37.886 3.157 48.936 11.050 11.050 6.314 15.786 17.365 15.786 33.151 0 12.629-4.736 23.679-14.207 33.151-9.472 7.893-23.679 12.629-39.465 12.629-9.472 0-18.943-1.579-26.836-4.736s-15.786-6.314-23.679-12.629c9.472 0 15.786-3.157 20.522-9.472 4.736-4.736 6.314-11.050 6.314-18.943 0-9.472-3.157-17.365-9.472-23.679-6.314-4.736-14.207-7.893-25.258-7.893-9.472 0-18.943 3.157-25.258 9.472-7.893 6.314-11.050 15.786-11.050 26.836 0 18.943 11.050 34.729 29.993 48.936 20.522 12.629 47.358 20.522 77.351 20.522 31.572 0 56.829-6.314 75.773-20.522 20.522-12.629 29.993-28.415 29.993-48.936 0-17.365-6.314-29.993-17.365-41.044s-26.836-17.365-50.515-22.1c25.258-4.736 42.622-12.629 55.251-25.258 12.629-11.050 18.943-26.836 18.943-45.779 0-25.258-11.050-44.201-33.151-59.987-22.1-14.207-50.515-22.1-88.401-22.1-31.572 0-56.829 6.314-77.351 20.522s-29.993 33.151-29.993 53.672c0 12.629 3.157 23.679 11.050 31.572s17.365 12.629 29.993 12.629c9.472 0 18.943-3.157 25.258-9.472s9.472-14.207 9.472-25.258c0-9.472-3.157-17.365-9.472-23.679-6.314-4.736-14.207-7.893-23.679-7.893h-4.736zM596.709 170.956v31.572h20.522c14.207 0 25.258 1.579 28.415 4.736 4.736 3.157 6.314 9.472 6.314 20.522v142.074h-55.251v31.572c22.1 1.579 37.886 4.736 50.515 11.050 11.050 6.314 20.522 17.365 26.836 29.993h36.308v-214.689c0-11.050 1.579-18.943 4.736-20.522 3.157-3.157 12.629-4.736 26.836-4.736h22.1v-31.572h-167.331z" />
<glyph unicode="&#xe93e;" glyph-name="ico62" horiz-adv-x="786" d="M69.295 75.592c-21.476 0-38.071 17.571-38.071 39.047v666.723c0 21.476 16.595 39.047 38.071 39.047h422.681c21.476 0 38.071-17.571 38.071-39.047v-7.809h31.237v43.928c0 23.428-19.523 42.951-42.951 42.951h-475.394c-23.428 0-42.951-19.523-42.951-42.951v-738.959c0-23.428 19.523-41.975 42.951-41.975h55.642v39.047h-29.285zM180.578 720.839c-20.5 0-38.071-17.571-38.071-39.047v-666.723c0-21.476 17.571-39.047 38.071-39.047h423.657c21.476 0 38.071 17.571 38.071 39.047v570.082l-111.283 0.976c-21.476 0-38.071 17.571-38.071 39.047l-0.976 95.664h-311.398zM155.198 760.862h475.394c23.428 0 42.951-19.523 42.951-42.951v-738.959c0-23.428-19.523-42.951-42.951-42.951h-475.394c-23.428 0-42.951 19.523-42.951 42.951v738.959c0 23.428 19.523 42.951 42.951 42.951zM716.494 176.137c21.476 0 38.071 16.595 38.071 38.071v667.699c0 20.5-16.595 38.071-38.071 38.071h-423.657c-20.5 0-38.071-17.571-38.071-38.071v-8.786h-30.261v43.928c0 23.428 18.547 42.951 42.951 42.951h475.394c23.428 0 42.951-19.523 42.951-42.951v-738.959c0-23.428-19.523-41.975-42.951-41.975h-55.642v40.023h29.285z" />
<glyph unicode="&#xe93f;" glyph-name="ico63" horiz-adv-x="1539" d="M962.167-39.274c-26.53 30.068-10.612 70.748 15.918 102.584 22.993 28.299 54.829 61.904 91.972 95.509l233.467 226.392c31.836 31.836 33.605 84.897 1.769 116.733l-254.691 261.766c-83.128 84.897-134.42 116.733-76.054 173.332 33.605 31.836 86.666 30.068 118.502-1.769l422.717-435.098c31.836-31.836 31.836-84.897-1.769-116.733l-435.098-422.717c-31.836-31.836-86.666-33.605-116.733 0zM840.127 369.293h-760.536c-44.217 0-79.591 35.374-79.591 77.822v0c0 44.217 35.374 79.591 79.591 79.591h760.536c42.449 0 79.591-35.374 79.591-79.591v0c0-42.449-35.374-77.822-79.591-77.822z" />
<glyph unicode="&#xe940;" glyph-name="ico64" horiz-adv-x="1539" d="M575.702-38.859c26.653 30.207 12.438 71.074-15.992 103.058-23.099 28.43-55.083 60.413-90.62 94.174l-232.768 227.438c-31.983 31.983-33.76 83.512-1.777 115.496l254.091 261.198c81.735 85.289 135.041 117.273 74.628 174.132-31.983 31.983-85.289 30.207-117.273-1.777l-422.892-433.553c-31.983-33.76-30.207-85.289 1.777-117.273l433.553-422.892c33.76-31.983 87.066-33.76 117.273 0zM698.305 368.041h760.495c44.421 0 79.959 35.537 79.959 79.959v0c0 42.645-37.314 79.959-79.959 79.959h-760.495c-42.645 0-78.182-37.314-78.182-79.959v0c0-44.421 35.537-79.959 78.182-79.959z" />
<glyph unicode="&#xe941;" glyph-name="ico65" horiz-adv-x="681" d="M664.508 320.372c-19.864 16.885-46.681 6.952-68.532-10.925-18.871-15.891-40.722-36.749-63.565-60.586l-149.975-154.941c-20.857-21.851-55.62-22.844-77.47-1.986l-173.812 168.846c-56.613 55.62-78.464 90.382-115.212 50.654-20.857-21.851-20.857-56.613 0.993-77.47l289.024-282.072c20.857-20.857 56.613-20.857 77.47 0.993l282.072 289.024c20.857 21.851 21.851 57.606-0.993 78.464zM393.361 401.816v505.544c0 28.803-23.837 52.64-52.64 52.64v0c-28.803 0-52.64-23.837-52.64-52.64v-505.544c0-29.796 23.837-52.64 52.64-52.64v0c28.803 0 52.64 22.844 52.64 52.64z" />
<glyph unicode="&#xe942;" glyph-name="ico66" horiz-adv-x="681" d="M664.548 576.564c-19.977-17.4-46.399-7.733-68.31 10.311-18.688 15.466-40.599 36.733-63.154 60.576l-150.797 155.308c-21.266 21.911-55.421 22.555-77.332 1.289l-173.996-168.841c-56.065-55.421-77.976-89.576-115.353-50.266-20.622 21.911-20.622 56.71 0.644 77.976l289.349 281.616c21.911 20.622 56.71 20.622 77.976-1.289l281.616-288.705c21.266-21.911 22.555-57.999-0.644-77.976zM393.887 494.721v-505.878c0-28.999-23.844-52.843-52.843-52.843v0c-28.999 0-52.843 23.844-52.843 52.843v505.878c0 28.999 23.844 52.843 52.843 52.843v0c28.999 0 52.843-23.844 52.843-52.843z" />
<glyph unicode="&#xe943;" glyph-name="ico67" horiz-adv-x="734" d="M716.197 349.718c-21.568 18.627-49.999 7.843-73.528-11.764-20.098-16.176-43.627-39.705-68.136-65.195l-162.742-167.154c-22.549-23.529-59.803-24.019-83.332-1.471l-187.251 181.859c-60.783 59.313-83.822 97.057-124.507 54.411-22.549-23.529-22.549-61.273 0.98-83.822l311.759-303.426c23.039-23.039 61.273-23.039 84.312 0.49l303.426 311.759c22.549 23.529 23.529 62.744-0.98 84.312zM716.197 546.282c-21.568-18.627-49.999-7.843-73.528 11.764-20.098 16.176-43.627 39.705-68.136 65.195l-162.742 167.154c-22.549 23.529-59.803 24.019-83.332 1.471l-187.251-181.859c-60.783-59.313-83.822-97.057-124.507-54.411-22.549 23.529-22.549 61.273 0.98 83.822l311.759 303.426c23.039 23.039 61.273 23.039 84.312-0.49l303.426-311.759c22.549-23.529 23.529-62.744-0.98-84.312z" />
<glyph unicode="&#xe944;" glyph-name="ico68" horiz-adv-x="997" d="M328.054 343.026v558.73c0 31.831-26.413 58.243-58.243 58.243v0c-32.508 0-58.243-26.413-58.243-58.243v-558.73c0-31.831 25.735-58.243 58.243-58.243v0c31.831 0 58.243 26.413 58.243 58.243zM519.716 252.952c-21.672 18.963-50.794 8.127-75.175-11.513-20.317-16.931-45.376-40.635-69.757-67.048l-59.598-64.339c-22.349-25.058-61.63-25.058-85.333-1.354l-85.333 79.238c-61.63 60.952-85.333 98.878-127.323 55.534-23.026-23.704-23.026-62.984 1.354-86.011l211.979-203.852c24.381-23.026 63.661-23.026 86.688 0.677l203.852 212.656c23.026 23.704 24.381 63.661-1.354 86.011zM529.197 353.862h137.481c23.704 0 42.667 18.963 42.667 42.667v24.381c0 23.704-18.963 43.344-42.667 43.344h-137.481c-23.704 0-42.667-19.64-42.667-43.344v-24.381c0-23.704 18.963-42.667 42.667-42.667zM529.197 555.683h228.233c23.704 0 42.667 18.963 42.667 42.667v25.058c0 23.026-18.963 42.667-42.667 42.667h-228.233c-23.704 0-42.667-19.64-42.667-42.667v-25.058c0-23.704 18.963-42.667 42.667-42.667zM529.197 757.503h425.312c23.704 0 42.667 19.64 42.667 43.344v24.381c0 23.704-18.963 42.667-42.667 42.667h-425.312c-23.704 0-42.667-18.963-42.667-42.667v-24.381c0-23.704 18.963-43.344 42.667-43.344z" />
<glyph unicode="&#xe945;" glyph-name="ico69" horiz-adv-x="997" d="M327.123 553.083v-558.952c0-32.419-25.712-58.131-58.131-58.131v0c-32.419 0-58.131 25.712-58.131 58.131v558.952c0 32.419 25.712 58.131 58.131 58.131v0c32.419 0 58.131-25.712 58.131-58.131zM519.402 643.633c-21.24-20.122-51.424-8.943-74.9 11.179-21.24 16.769-45.834 40.245-70.428 67.074l-59.249 64.838c-22.358 24.594-61.485 24.594-86.079 1.118l-84.961-79.371c-61.485-61.485-86.079-99.493-127.441-55.895-22.358 23.476-22.358 62.603 1.118 86.079l212.402 204.576c24.594 22.358 63.721 22.358 87.197-1.118l203.459-212.402c23.476-24.594 24.594-64.838-1.118-86.079zM529.463 507.249h137.502c23.476 0 42.48-20.122 42.48-43.598v-24.594c0-23.476-19.004-42.48-42.48-42.48h-137.502c-24.594 0-43.598 19.004-43.598 42.48v24.594c0 23.476 19.004 43.598 43.598 43.598zM529.463 304.908h228.052c23.476 0 42.48-19.004 42.48-43.598v-24.594c0-23.476-19.004-42.48-42.48-42.48h-228.052c-24.594 0-43.598 19.004-43.598 42.48v24.594c0 24.594 19.004 43.598 43.598 43.598zM529.463 102.568h424.803c23.476 0 43.598-19.004 43.598-42.48v-24.594c0-24.594-20.122-43.598-43.598-43.598h-424.803c-24.594 0-43.598 19.004-43.598 43.598v24.594c0 23.476 19.004 42.48 43.598 42.48z" />
<glyph unicode="&#xe946;" glyph-name="ico70" d="M510.899 960c-281.875 0-510.899-229.024-510.899-510.899 0-284.077 229.024-513.101 510.899-513.101 284.077 0 513.101 229.024 513.101 513.101 0 281.875-229.024 510.899-513.101 510.899zM510.899 922.563c262.056 0 473.462-211.406 473.462-473.462s-211.406-473.462-473.462-473.462c-262.056 0-473.462 211.406-473.462 473.462s211.406 473.462 473.462 473.462zM737.72 708.955l-226.822-224.619-224.619 224.619-35.234-35.234 224.619-224.619-224.619-226.822 35.234-35.234 224.619 226.822 226.822-226.822 35.234 35.234-226.822 226.822 226.822 224.619-35.234 35.234z" />
<glyph unicode="&#xe947;" glyph-name="ico71" d="M832.081-64.050l-320.031 320.031-320.031-320.031-192.019 192.019 320.031 320.031-320.031 320.031 192.019 192.019 320.031-320.031 320.031 320.031 192.019-192.019-320.031-320.031 320.031-320.031z" />
<glyph unicode="&#xe948;" glyph-name="ico72" horiz-adv-x="1182" d="M1175.23 10.018c12.422 14.116 5.082 33.314-7.717 49.125-11.105 13.363-26.35 29.174-43.478 45.549l-59.665 56.089c-15.81 14.869-15.998 40.090-0.753 55.712l69.076 72.84c39.714 40.655 64.559 56.089 36.514 83.004-15.81 15.057-41.22 15.057-56.277-0.565l-150.386-155.844c-15.057-15.622-15.057-41.031 0.565-56.277l155.844-150.198c15.81-15.246 41.784-15.998 56.277 0.565zM1012.798-51.717c12.422 14.305 5.27 33.314-7.717 49.125-10.917 13.363-26.539 28.985-43.478 45.36l-111.801 108.601c-15.81 15.057-16.187 40.090-0.941 55.712l121.4 125.165c39.714 40.655 64.747 56.089 36.514 83.004-15.81 15.057-41.031 15.057-56.277-0.565l-202.71-208.169c-15.246-15.622-15.057-41.031 0.565-56.277l208.169-202.71c15.81-15.246 41.784-15.81 56.277 0.753zM0 398.311c37.455 29.55 49.689 23.151 77.922 37.643 5.647 45.737 1.694 103.52-24.092 123.471-9.599 7.529-44.043 15.246-35.008 36.702 3.2 7.529 43.102 19.198 51.572 21.269-5.835 11.669-10.54 10.917-21.080 36.138-21.269 50.631-29.55 167.137 27.856 203.84 23.904 15.246 84.698 19.198 113.872 23.715 62.488 9.223 124.6 19.386 187.276 29.55 62.3 10.164 126.106 17.504 187.465 29.362 15.434 3.011 127.611 22.963 140.034 19.575 12.987-3.388 27.103-9.787 41.596-14.305 54.207-16.94 110.107-37.267 163.937-55.901 18.445-6.399 158.856-52.513 162.808-57.406 12.611-15.057-7.529-27.48-17.692-31.809-29.738-12.987-37.643-36.891-41.031-73.969-1.318-13.74-4.517-53.454 6.023-59.289 12.799-7.152 40.843-8.846 73.593-35.95v-5.458c-14.305-8.658-40.655-12.046-51.76-16.751l-5.835-3.764c26.162-36.138 28.985-100.885 18.445-150.574-10.352 6.023-20.892 11.105-31.809 15.246 6.588 39.526 4.329 92.791-15.057 107.849-15.622 12.046-40.843-1.506-58.347-8.47-76.416-29.738-157.726-56.653-235.084-86.768-38.208-15.057-77.922-29.738-117.071-43.478l3.576-148.127c3.2-0.376 45.172 12.422 99.755 29.55-7.529-22.21-11.858-44.984-12.799-67.947l-24.656-5.835c-18.257-4.329-39.526-16.375-57.030-20.516-10.164-2.447-14.681 3.576-29.738 0.188l-92.791-22.21-4.329-147.186c17.692 1.882 44.419 12.046 61.924 16.563 55.712 14.681 116.883 31.997 177.113 49.313 9.599-17.504 21.645-34.256 36.138-49.501l-274.233-75.287c-18.634-5.082-18.822-7.717-36.702-1.318l-102.955 38.208c-45.925 17.692-89.592 33.503-136.081 50.066-44.608 15.998-90.721 34.067-135.705 50.254-14.305 5.082-21.080 7.529-30.679 16.94-6.023 5.835-15.246 17.692-20.139 28.609-16.94 36.891-14.305 67.57-19.198 79.428v50.442l3.388 9.411c2.447 11.858 3.011 17.881 8.282 30.491 1.694 4.329 5.647 12.046 8.093 16.375 3.953 6.399 7.34 8.282 10.352 15.246l-30.115 10.352v6.023zM459.627 57.449l3.953 146.998c-5.082 4.141-315.264 118.389-348.767 130.246-34.256 12.234-79.804 43.855-80.369-56.653 0-26.915 3.576-53.454 12.422-73.781 9.976-22.963 23.904-25.221 48.56-32.373 32.185-9.411 351.402-114.436 364.201-114.436zM492.565 523.099l4.517 147.939c-13.175 6.964-44.231 16.94-57.971 21.645-92.415 31.809-198.005 74.158-291.549 108.037-15.81 5.835-44.608 21.269-59.665 10.728-28.421-19.575-22.963-106.531-7.905-141.163 10.917-24.845 21.269-23.715 48.184-32.373 40.279-13.363 81.122-26.915 121.4-38.961 30.679-9.223 231.131-76.981 242.989-75.852zM99.379 424.473c39.902-9.034 79.992-23.151 118.953-33.503 78.487-20.327 161.679-46.49 241.295-67.758 20.516-5.458 39.714-11.481 60.23-17.316 15.998-4.517 45.925-14.869 61.171-15.998-0.188 20.892-1.506 137.775-5.458 147.563l-486.919 113.683c3.388-18.634 10.164-25.033 12.046-58.912 0.941-17.128-3.2-58.347-1.318-67.758zM518.539 670.285l-4.894-147.939 481.837 135.14 0.753 6.399c0.565 21.833-7.717 44.984 2.259 92.791 2.259 10.352 6.776 18.822 8.282 26.915l-488.236-113.307zM0 310.413v81.875l30.115-10.352c-3.011-6.964-6.399-8.846-10.352-15.246-2.447-4.329-6.399-12.046-8.093-16.375-5.27-12.611-5.835-18.634-8.282-30.491l-3.388-9.411z" />
</font>
</defs>
</svg>
