<?xml version="1.0" encoding="UTF-8" standalone="no"?>
<!-- Creator: CorelDRAW X8 -->

<svg
   xmlns:dc="http://purl.org/dc/elements/1.1/"
   xmlns:cc="http://creativecommons.org/ns#"
   xmlns:rdf="http://www.w3.org/1999/02/22-rdf-syntax-ns#"
   xmlns:svg="http://www.w3.org/2000/svg"
   xmlns="http://www.w3.org/2000/svg"
   xmlns:sodipodi="http://sodipodi.sourceforge.net/DTD/sodipodi-0.dtd"
   xmlns:inkscape="http://www.inkscape.org/namespaces/inkscape"
   xml:space="preserve"
   width="26.219786"
   height="22.17766"
   version="1.1"
   style="clip-rule:evenodd;fill-rule:evenodd;image-rendering:optimizeQuality;shape-rendering:geometricPrecision;text-rendering:geometricPrecision"
   viewBox="0 0 3226.3446 2763.8908"
   id="svg10"
   sodipodi:docname="ico138.svg"
   inkscape:version="0.92.3 (2405546, 2018-03-11)"><metadata
   id="metadata14"><rdf:RDF><cc:Work
       rdf:about=""><dc:format>image/svg+xml</dc:format><dc:type
         rdf:resource="http://purl.org/dc/dcmitype/StillImage" /><dc:title></dc:title></cc:Work></rdf:RDF></metadata><sodipodi:namedview
   pagecolor="#ffffff"
   bordercolor="#666666"
   borderopacity="1"
   objecttolerance="10"
   gridtolerance="10"
   guidetolerance="10"
   inkscape:pageopacity="0"
   inkscape:pageshadow="2"
   inkscape:window-width="1280"
   inkscape:window-height="737"
   id="namedview12"
   showgrid="false"
   fit-margin-top="0"
   fit-margin-left="0"
   fit-margin-right="0"
   fit-margin-bottom="0"
   inkscape:zoom="16"
   inkscape:cx="17.443833"
   inkscape:cy="7.9619571"
   inkscape:window-x="1358"
   inkscape:window-y="-8"
   inkscape:window-maximized="1"
   inkscape:current-layer="layer1"
   inkscape:measure-start="0,0"
   inkscape:measure-end="0,0"
   showguides="true"
   inkscape:guide-bbox="true"><sodipodi:guide
     position="3568.181,-5417.4094"
     orientation="0,1"
     id="guide3775"
     inkscape:locked="false" /></sodipodi:namedview>
 <defs
   id="defs4">
  <style
   type="text/css"
   id="style2">
   <![CDATA[
    .fil0 {fill:#4D4D4D}
   ]]>
  </style>
 </defs>
 <g
   id="Camada_x0020_1"
   transform="translate(-701.00162,-405.82597)"
   style="display:inline">
  <metadata
   id="CorelCorpID_0Corel-Layer" />
  <path
   inkscape:connector-curvature="0"
   id="path3754"
   d="m 2261.1295,3064.9366 c -487.1426,-125.7061 -476.4893,-122.2045 -482.5094,-158.584 -2.6143,-15.799 -7.6125,-185.0232 -11.1068,-376.0533 l -6.3533,-347.3275 24.2803,-12.1329 c 20.2246,-10.1061 272.5321,-39.0896 653.6714,-75.0895 42.3937,-4.0045 83.8169,-13.7365 92.0519,-21.6272 8.235,-7.8906 47.1307,-110.7361 86.4349,-228.5457 79.8444,-239.3235 89.922,-261.6476 101.6588,-225.1939 4.2459,13.1872 8.0558,367.1821 8.4662,786.6554 l 0.7465,762.6789 -34.5194,-0.9998 c -18.9857,-0.55 -213.7552,-47.2509 -432.8211,-103.7805 z m 329.2626,-258.7095 v -129.8175 h -159.3206 -159.3206 v 96.775 96.7749 l 34.5194,7.8564 c 35.8855,8.167 262.1873,54.8904 276.1558,57.0164 4.3813,0.6669 7.966,-57.2054 7.966,-128.6052 z m 191.9315,-399.1891 c 0.411,-419.4733 4.2202,-773.4682 8.4661,-786.6554 11.7369,-36.4537 21.8146,-14.1296 101.6588,225.1939 39.3042,117.8096 78.2,220.6551 86.435,228.5457 8.2349,7.8907 49.6583,17.6227 92.0519,21.6272 381.1394,35.9999 633.4468,64.9834 653.6713,75.0895 l 24.2805,12.1329 -6.3535,347.3275 c -3.4943,191.0301 -8.4923,360.2543 -11.1067,376.0533 -3.3183,20.0519 -16.749,32.8093 -44.4806,42.2503 -75.6796,25.7646 -851.8669,221.114 -878.5584,221.114 h -26.811 l 0.7467,-762.6789 z m -793.8052,452.4572 0.6151,-276.6139 62.146,7.6885 -103.7997,-235.7728 -126.0667,218.8578 59.5879,8.307 0.7867,259.0348 z m -421.319,-775.9196 c -3.8945,-4.7599 -7.0809,-16.9816 -7.0809,-27.1593 0,-13.4329 68.799,-199.9827 132.4812,-365.5872 83.0586,-191.1536 219.6397,-291.3673 396.823,-334.2039 276.8233,-66.1194 651.3851,-149.3847 657.2417,-142.2265 5.0116,6.1253 -259.1826,744.9859 -273.7059,765.4617 -7.8087,11.0089 -774.1623,111.3846 -855.3076,112.0266 -23.8538,0.1886 -46.557,-3.5514 -50.4515,-8.3114 z m 1864.2237,-42.809 c -212.156,-26.9177 -389.4209,-54.0988 -393.9222,-60.4023 -14.7372,-20.638 -279.2325,-759.7147 -274.1182,-765.9656 9.2383,-11.2913 935.8819,202.4073 949.2093,218.9026 22.8276,28.2532 238.8762,607.1032 235.259,630.3189 -5.4485,34.969 -90.2829,31.2147 -516.4279,-22.8536 z"
   style="fill:#1a1a1a;fill-opacity:1;stroke-width:11.74241161"
   sodipodi:nodetypes="ssscsccscsccsscccccccsccsccscsccsccccccccccccsccccccsccscs" /><path
   class="fil0"
   d="m 2202.1505,865.14235 180.9929,234.24715 c -599.3058,106.9484 -810.8255,257.4637 -1029.2352,845.3636 l -178.328,-234.7821 c 32.7543,-135.6562 254.1922,-430.6282 349.838,-520.5875 179.3432,-169.8704 424.6432,-272.66807 676.7323,-324.24115 z m 287.545,-459.31638 -206.6285,428.72691 c -16.2746,-8.20585 -26.1019,-26.31172 -40.5424,-44.44736 -96.7321,5.08083 -320.7998,88.31694 -415.8139,132.25451 -122.0628,57.01781 -245.8452,134.46007 -333.8407,220.97097 -134.2138,130.2122 -182.582,206.8541 -272.8427,345.4516 l -85.3612,150.0436 c -17.0495,32.1077 -18.9411,51.6105 -40.403,79.8233 13.9528,40.2248 42.5475,65.08 65.4115,98.7349 l -258.99433,49.1349 226.20503,298.792 61.1465,-47.655 112.3434,142.8555 -124.0957,11.5311 c -15.3593,46.1105 -32.81,85.9479 -44.2438,128.4016 -17.5066,-9.8708 -97.244,-116.2467 -110.395,-142.2905 l 60.8316,-54.2846 c -24.9554,-39.9279 -227.75203,-307.0867 -248.4391,-319.1873 -28.33737,-8.6524 -106.18776,13.6722 -139.76916,21.3711 2.46501,-26.3107 24.35701,-67.0399 37.16573,-102.1206 22.15041,-54.1671 12.83778,-39.8673 -26.24316,-91.3012 -75.52576,-98.6162 36.42246,-155.5154 124.64466,-161.7559 36.67811,-80.0314 62.15278,-155.9011 91.52411,-230.6409 L 1110.65,852.91768 c 19.4855,-53.63187 84.7611,-197.73016 89.6045,-235.99223 63.1516,-27.02239 1105.5458,-169.39452 1289.441,-211.09948 z"
   id="path7"
   inkscape:connector-curvature="0"
   style="fill:#1a1a1a;stroke-width:0.9215681"
   sodipodi:nodetypes="cccccccccccccccccccccccccccccccc" />
 
<g
   aria-label="s"
   transform="matrix(0.74879747,-0.13883725,0.20029652,1.2983369,-20.65387,-83.992402)"
   style="font-style:normal;font-variant:normal;font-weight:normal;font-stretch:normal;font-size:524.91583252px;line-height:1.25;font-family:Ethnocentric;-inkscape-font-specification:Ethnocentric;letter-spacing:0px;word-spacing:0px;fill:#ececec;fill-opacity:1;stroke:none;stroke-width:13.12289524"
   id="text3719" /><g
   id="g3769"
   transform="matrix(0.71120432,0,0,0.73129774,1108.2437,622.59183)"><g
     transform="translate(2.7538496,-74.35393)"
     id="g3764" /></g><text
   xml:space="preserve"
   style="font-style:normal;font-weight:normal;font-size:774.27679443px;line-height:1.25;font-family:sans-serif;letter-spacing:0px;word-spacing:0px;fill:#ffffff;fill-opacity:1;stroke:none;stroke-width:19.35692024"
   x="2832.157"
   y="2861.7212"
   id="text3779"><tspan
     sodipodi:role="line"
     id="tspan3777"
     x="2832.157"
     y="3568.1174"
     style="font-style:normal;font-variant:normal;font-weight:normal;font-stretch:normal;font-family:'Segoe Script';-inkscape-font-specification:'Segoe Script';fill:#ffffff;stroke-width:19.35692024" /></text>
</g><g
   inkscape:groupmode="layer"
   id="layer1"
   inkscape:label="Layer 1"
   style="opacity:1"><path
     style="font-style:normal;font-variant:normal;font-weight:normal;font-stretch:normal;font-size:524.91583252px;line-height:1.25;font-family:Ethnocentric;-inkscape-font-specification:Ethnocentric;letter-spacing:0px;word-spacing:0px;clip-rule:evenodd;display:inline;fill:#ececec;fill-opacity:1;fill-rule:evenodd;stroke:none;stroke-width:0.10529911;image-rendering:optimizeQuality;shape-rendering:geometricPrecision;text-rendering:geometricPrecision"
     d="m 23.144531,14.570312 -2.0625,0.382813 c -0.256518,0.04756 -0.454785,0.189654 -0.595703,0.425781 -0.151284,0.253048 -0.198821,0.561211 -0.142578,0.925782 0.03086,0.200048 0.09275,0.365802 0.173828,0.511718 l 1.736328,-0.324218 0.960938,-0.04883 -2.603516,0.494141 c 0.02039,0.02707 0.0399,0.05541 0.0625,0.08008 l 1.707031,-0.320312 0.900391,-0.01953 -2.492188,0.462891 c 0.195959,0.15285 0.412797,0.215061 0.65625,0.169922 l 1.158204,-0.214844 c 0.07569,-0.01403 0.144636,-0.0084 0.207031,0.01758 0.08357,0.03701 0.133252,0.104691 0.148437,0.203125 0.01462,0.09479 -0.01087,0.177374 -0.07813,0.246094 -0.05212,0.05466 -0.115862,0.08792 -0.189453,0.101562 l -1.626953,0.302735 -0.296875,1.101562 2.080078,-0.386718 c 0.277544,-0.05146 0.489375,-0.20945 0.634766,-0.472657 0.15632,-0.276482 0.204711,-0.60991 0.144531,-1 -0.06074,-0.393735 -0.205965,-0.695772 -0.435547,-0.908203 -0.221024,-0.199018 -0.468699,-0.273727 -0.74414,-0.222656 l -1.158204,0.214844 c -0.08621,0.01598 -0.137986,-0.02904 -0.154296,-0.134766 -0.01631,-0.105726 0.01926,-0.165656 0.105468,-0.181641 l 1.609375,-0.298828 z m -2.875,0.496094 -2.0625,0.382813 c -0.256518,0.04756 -0.454785,0.187701 -0.595703,0.423828 -0.151284,0.253048 -0.198821,0.563164 -0.142578,0.927734 0.05568,0.360925 0.193334,0.633925 0.412109,0.81836 0.20391,0.172191 0.432935,0.233108 0.689453,0.185547 l 1.158204,-0.214844 c 0.07569,-0.01403 0.144636,-0.0064 0.207031,0.01953 0.08357,0.03701 0.133252,0.104691 0.148437,0.203125 0.01462,0.09479 -0.01282,0.175421 -0.08008,0.244141 -0.05212,0.05466 -0.113909,0.08987 -0.1875,0.103515 l -1.626953,0.300782 -0.298828,1.101562 2.082031,-0.386719 c 0.277544,-0.05146 0.489375,-0.207497 0.634766,-0.470703 0.15632,-0.276483 0.204711,-0.60991 0.144531,-1 -0.03082,-0.199764 -0.08391,-0.375972 -0.158203,-0.529297 l -2.498047,0.464844 0.703125,-0.273437 1.703125,-0.31836 c -0.01806,-0.02827 -0.03871,-0.05377 -0.05859,-0.08008 l -2.402343,0.455078 0.703125,-0.27539 1.611328,-0.300782 c -0.01496,-0.01544 -0.02331,-0.03816 -0.03906,-0.05273 -0.221025,-0.199018 -0.468699,-0.271774 -0.74414,-0.220703 l -1.158204,0.214843 c -0.08621,0.01598 -0.137986,-0.02904 -0.154296,-0.134765 -0.01631,-0.105726 0.01926,-0.16761 0.105468,-0.183594 l 1.607422,-0.298828 z"
     transform="matrix(124.625,0,0,124.625,-20.648051,0)"
     id="path3759"
     inkscape:connector-curvature="0" /></g>
</svg>